if (_typeface_js && _typeface_js.loadFace) _typeface_js.loadFace({"glyphs":{"S":{"x_min":68.0625,"x_max":1193.0625,"ha":1282,"o":"m 336 426 l 336 209 l 500 209 l 500 -116 l 761 -116 l 761 1243 l 966 1243 l 966 765 l 1193 765 l 1193 1508 l 68 1508 l 69 763 l 294 765 l 294 1243 l 500 1243 l 500 426 l 336 426 m 762 423 l 923 423 l 923 209 l 762 209 l 762 423 "},"¦":{"x_min":73.5,"x_max":1359.71875,"ha":1418,"o":"m 1112 1636 q 1137 1472 1126 1602 l 1140 1416 l 1137 1416 l 1140 1409 q 1143 1340 1138 1361 l 1140 1331 l 1143 1323 l 1140 1313 l 1143 1312 l 1140 1301 q 1118 1106 1138 1204 q 1047 933 1088 1002 l 1020 897 q 916 801 945 808 q 808 763 847 762 l 808 759 l 818 754 q 927 791 845 754 q 968 818 958 818 l 970 818 q 1062 705 1037 763 q 1143 359 1145 565 l 1143 331 l 1144 323 q 1105 77 1133 190 q 1063 -29 1076 -29 q 934 15 951 15 l 934 18 l 951 70 q 991 202 959 69 q 1004 345 1004 287 l 1004 350 q 970 581 1006 484 q 929 663 950 634 q 859 733 918 690 q 802 751 827 747 l 766 751 l 733 745 l 720 765 l 725 769 l 729 769 l 768 762 l 776 763 l 794 759 l 801 759 l 801 761 q 790 768 801 766 l 780 766 l 750 773 l 748 770 l 695 784 l 693 784 l 693 781 q 794 462 797 640 l 794 455 q 733 272 793 375 q 630 198 686 211 l 626 198 l 619 201 l 616 200 l 615 200 q 537 234 561 209 q 475 325 479 290 q 434 484 433 395 l 436 533 q 498 713 437 609 q 513 730 506 718 q 570 691 534 730 l 600 661 q 605 645 605 652 q 561 488 562 576 q 590 372 570 372 q 613 352 590 359 q 650 391 650 361 q 663 458 658 398 l 662 459 l 663 470 l 665 516 q 625 650 654 598 q 583 709 625 659 q 468 761 525 759 q 361 729 361 745 q 272 618 304 700 q 223 420 238 547 l 226 418 l 220 388 l 225 365 l 222 356 q 240 181 225 262 l 254 105 l 277 16 l 201 -11 q 156 -27 170 -27 q 120 88 141 -2 q 93 351 91 244 l 94 420 l 97 450 l 94 456 q 138 651 95 531 q 238 806 156 709 q 393 879 327 880 q 409 883 393 881 l 408 884 l 408 887 q 295 863 330 880 q 265 845 279 844 q 181 933 241 862 l 136 1008 q 73 1309 70 1158 l 76 1316 l 73 1318 l 76 1333 l 76 1365 q 104 1579 77 1437 l 118 1643 l 134 1647 l 140 1641 l 150 1645 l 151 1644 l 191 1647 l 211 1645 l 255 1644 l 258 1641 l 259 1641 q 219 1426 220 1486 l 219 1418 l 212 1355 l 213 1333 l 212 1326 l 215 1270 l 212 1256 q 241 1111 226 1133 q 272 1043 254 1073 q 411 911 338 933 l 451 901 l 463 901 l 506 902 q 531 876 531 901 l 550 872 l 552 873 l 552 876 q 476 981 488 940 q 434 1154 433 1068 l 431 1176 l 434 1194 l 433 1197 l 433 1200 q 481 1359 434 1270 l 519 1412 q 601 1444 577 1445 l 606 1447 l 618 1447 q 694 1419 663 1445 q 776 1281 743 1391 q 791 1168 786 1241 q 720 926 788 1019 l 719 925 l 716 925 q 651 968 694 927 q 630 995 630 987 q 669 1136 668 1070 q 662 1225 670 1209 l 665 1227 l 665 1229 q 634 1293 665 1255 l 611 1304 q 575 1269 595 1304 q 555 1156 556 1213 q 562 1097 558 1151 q 651 947 587 997 q 731 901 676 916 l 769 898 l 776 900 l 776 897 q 906 972 838 897 q 981 1136 950 1027 q 1001 1295 995 1213 l 998 1333 l 1000 1336 l 1000 1337 l 998 1347 l 998 1352 l 1001 1355 l 998 1356 l 998 1359 l 1001 1361 l 998 1363 l 998 1365 l 1001 1368 q 981 1520 995 1455 l 984 1529 q 980 1548 980 1529 q 969 1595 975 1548 l 958 1631 l 977 1636 l 980 1633 l 990 1636 l 1005 1636 l 1022 1633 l 1037 1634 l 1045 1633 l 1065 1634 l 1068 1634 l 1080 1631 l 1088 1634 l 1090 1631 l 1093 1631 l 1112 1636 m 1220 1975 l 1220 1975 q 1347 1897 1300 1975 l 1359 1840 q 1333 1754 1359 1804 q 1290 1709 1308 1719 q 1258 1684 1290 1702 q 1202 1659 1209 1659 l 1197 1659 q 1180 1702 1180 1677 q 1308 1840 1308 1765 q 1208 1919 1293 1919 q 1088 1869 1140 1902 l 1083 1865 q 1052 1900 1076 1865 q 1220 1975 1136 1975 "},"/":{"x_min":45.828125,"x_max":997.21875,"ha":1086,"o":"m 531 1241 l 534 1238 l 556 1241 l 620 1238 q 681 1222 620 1231 q 840 1116 750 1200 q 956 836 956 975 q 890 575 956 672 q 781 455 868 518 q 762 444 781 450 q 570 388 675 388 q 412 422 505 388 q 387 488 387 436 l 390 491 l 384 572 l 387 575 l 387 577 q 381 641 381 591 l 381 655 l 379 669 l 387 675 q 412 638 391 675 q 537 580 472 580 l 551 583 l 579 580 q 673 633 615 587 q 740 797 740 723 q 693 936 740 854 q 584 1000 655 981 l 543 1000 q 429 955 479 1000 q 379 863 395 909 q 359 733 365 800 l 362 705 l 365 600 l 368 597 l 368 594 l 365 591 l 368 572 l 370 377 l 373 375 l 373 372 l 370 361 l 370 358 q 306 27 370 236 q 51 -288 219 -170 l 45 -283 q 70 -244 50 -269 q 137 -63 137 -108 q 176 144 162 -2 l 176 269 l 173 283 l 176 283 l 170 311 l 173 319 l 170 400 l 168 402 l 168 405 l 170 408 l 170 411 l 168 422 l 170 425 q 148 650 159 573 l 151 652 l 145 772 l 148 797 l 145 816 q 190 994 166 968 q 276 1130 211 1055 q 359 1191 311 1165 q 462 1233 412 1223 l 465 1236 l 468 1233 l 476 1236 l 531 1241 m 50 1387 l 997 1387 l 997 1565 l 45 1565 l 50 1387 "},"K":{"x_min":15.28125,"x_max":1293.0625,"ha":1394,"o":"m 531 1620 q 644 1577 598 1620 q 690 1472 690 1533 q 644 1367 690 1411 q 531 1323 598 1323 q 420 1367 466 1323 q 375 1472 375 1411 q 420 1577 375 1533 q 531 1620 466 1620 m 425 1295 l 637 1295 l 637 972 l 425 773 q 425 1295 433 1300 m 1131 1380 l 1279 1206 l 451 490 q 263 441 343 441 q 118 486 188 441 q 15 683 15 550 q 245 937 15 937 q 315 931 268 937 q 387 925 363 925 l 387 733 q 284 756 323 756 q 208 702 208 756 q 272 637 208 637 q 401 697 329 637 q 1131 1380 456 744 m 425 29 l 634 29 l 637 615 q 548 529 593 572 q 423 441 480 469 q 425 231 422 441 q 425 29 425 130 m 1151 -11 l 1293 127 l 737 698 l 675 658 l 675 469 l 1151 -11 "},"7":{"x_min":47.21875,"x_max":938.328125,"ha":942,"o":"m 584 900 l 512 805 q 244 899 334 899 q 206 891 225 899 q 169 874 187 883 q 134 857 151 865 q 100 850 116 850 q 63 861 79 850 q 47 894 47 872 q 100 994 47 961 q 247 1028 152 1028 q 584 900 416 1028 m 805 761 l 681 758 l 788 861 q 821 871 809 862 q 839 889 834 879 q 840 906 843 899 q 824 914 836 914 q 809 911 818 914 q 799 908 799 908 q 753 879 782 908 q 695 816 724 851 q 645 750 667 780 q 621 714 624 719 q 582 600 591 657 q 568 483 574 543 l 457 494 q 455 509 456 501 q 455 526 455 518 q 480 672 455 602 q 555 815 506 741 q 593 868 575 847 q 628 907 610 890 q 664 940 646 925 q 706 973 682 955 q 768 1007 735 997 q 835 1017 802 1017 q 908 982 878 1017 q 938 902 938 948 q 805 761 938 799 m 833 572 l 831 464 q 524 367 763 367 q 228 456 228 367 q 243 497 228 483 q 284 511 259 510 q 340 503 309 511 q 400 478 370 495 q 329 474 358 474 q 300 460 300 475 q 517 452 383 452 q 833 572 652 452 m 549 226 l 618 329 q 644 278 630 315 q 658 189 658 241 q 607 34 658 91 q 511 -11 566 -11 q 460 11 482 -11 q 423 66 438 34 q 401 133 409 98 q 394 191 394 168 q 438 335 396 283 l 563 333 q 525 250 538 298 q 513 152 513 202 q 521 115 513 123 q 539 114 529 107 q 557 142 549 122 q 566 191 566 162 q 549 226 566 225 "},"¨":{"x_min":66.671875,"x_max":1063.890625,"ha":1121,"o":"m 993 2120 q 1056 1836 1038 1990 l 1059 1822 l 1059 1819 l 1058 1818 q 1063 1704 1063 1781 q 1015 1461 1058 1544 q 955 1361 1015 1441 q 865 1288 918 1318 q 734 1256 794 1255 l 731 1255 l 730 1255 q 629 1276 659 1261 q 615 1281 629 1279 l 615 1279 q 686 1180 675 1216 q 723 1009 705 1136 l 720 937 q 673 798 702 829 q 609 737 655 765 q 559 730 584 730 q 444 819 481 733 q 419 891 425 865 q 408 984 415 891 l 408 986 l 411 1006 l 411 1022 l 413 1023 l 412 1026 q 447 1169 425 1133 q 480 1212 469 1212 l 481 1212 l 533 1168 q 548 1138 548 1148 q 513 1033 538 1140 l 511 1002 l 512 968 l 509 969 q 534 879 520 880 q 559 865 544 865 l 562 865 q 597 893 586 863 q 611 951 605 906 l 609 963 l 612 979 q 587 1127 613 1031 q 522 1202 550 1193 q 443 1238 486 1237 l 420 1244 q 331 1216 356 1237 q 288 1181 305 1200 l 287 1184 l 284 1184 q 255 1131 284 1177 q 201 956 231 1094 l 202 955 l 195 868 q 237 545 190 715 q 198 411 223 545 q 186 295 188 351 l 186 279 l 183 277 l 186 275 l 183 213 l 184 200 l 183 200 q 229 -2 195 104 q 290 -113 256 -72 q 340 -151 329 -150 q 384 -166 365 -163 q 440 -152 404 -168 l 456 -150 q 526 -229 469 -179 l 526 -236 q 443 -275 512 -254 l 402 -279 q 269 -243 322 -276 q 226 -211 259 -243 q 165 -143 220 -211 q 87 56 97 -19 q 66 208 75 84 l 69 287 l 72 295 l 70 297 l 70 300 l 84 420 l 83 423 l 83 425 q 112 545 93 480 q 80 818 77 762 l 76 887 l 79 887 l 76 890 l 77 897 l 79 900 l 77 901 l 77 904 l 79 909 l 77 915 q 168 1208 83 1070 q 304 1336 220 1291 q 381 1363 351 1358 l 381 1365 q 340 1373 361 1366 q 302 1355 334 1366 q 287 1348 302 1350 q 262 1333 287 1341 q 248 1318 262 1329 l 245 1308 l 240 1308 q 193 1341 208 1322 q 109 1484 125 1420 q 72 1662 72 1594 q 68 1786 63 1662 q 116 2075 72 1904 l 129 2106 l 186 2086 q 244 2068 244 2072 l 244 2062 l 241 2061 l 244 2058 l 243 2056 q 230 2038 231 2051 q 184 1865 213 2008 l 187 1862 l 179 1756 q 206 1565 176 1663 l 215 1534 q 268 1447 241 1480 q 362 1377 284 1411 q 391 1365 379 1377 l 401 1362 q 450 1366 411 1366 l 500 1356 l 500 1359 q 433 1483 433 1462 q 412 1552 429 1483 q 405 1593 412 1565 l 406 1626 l 405 1640 l 406 1640 l 405 1643 l 405 1658 l 404 1669 q 438 1800 415 1755 q 563 1895 491 1898 q 648 1858 623 1884 q 711 1734 691 1816 q 716 1723 713 1734 l 713 1722 l 713 1719 q 726 1591 725 1691 l 725 1579 q 676 1391 722 1488 l 672 1391 q 588 1466 633 1418 l 587 1466 l 587 1470 q 611 1587 601 1513 l 609 1593 l 612 1611 l 605 1694 q 559 1770 587 1770 l 554 1772 q 512 1655 523 1763 l 513 1647 l 513 1643 l 511 1641 l 520 1562 q 586 1430 534 1494 q 722 1363 652 1366 q 861 1437 787 1361 q 926 1566 912 1495 q 947 1645 937 1583 l 945 1648 l 945 1650 l 948 1677 l 947 1686 l 948 1686 l 947 1687 l 948 1722 q 886 2059 954 1894 l 881 2063 l 883 2076 q 919 2088 883 2080 q 993 2120 975 2120 m 879 1286 l 883 1286 q 991 1140 954 1216 q 1044 990 1029 1080 l 1058 893 l 1055 893 l 1056 891 l 1056 887 q 1059 825 1055 836 l 1056 823 l 1056 822 l 1058 815 l 1056 813 l 1058 805 q 1045 665 1054 694 l 1047 663 l 1047 662 l 1023 552 l 1041 380 l 1045 279 l 1044 279 l 1045 273 l 1047 211 l 1045 209 l 1045 206 l 1047 195 l 1043 150 l 1045 143 q 1011 -26 1044 102 q 934 -166 973 -122 q 677 -284 837 -290 q 550 -225 586 -262 q 447 -87 473 -165 q 408 127 404 13 l 406 130 l 408 136 l 406 137 l 406 140 l 408 141 l 406 150 q 465 309 409 226 q 483 333 469 309 q 565 366 519 368 q 655 319 609 365 l 681 284 q 720 93 725 194 l 720 84 l 722 72 q 708 -5 713 4 l 709 -8 l 709 -9 q 654 -126 683 -109 q 645 -133 651 -134 q 586 -69 611 -119 q 576 -50 576 -55 l 576 -47 q 615 94 613 45 q 590 227 618 158 l 570 245 q 536 225 536 247 q 516 131 523 215 q 534 1 515 80 q 595 -112 568 -88 q 688 -168 623 -148 q 818 -122 775 -170 q 855 -83 831 -115 l 880 -40 q 919 95 918 48 l 922 95 l 919 98 l 927 165 l 930 225 l 931 227 l 930 229 l 930 240 q 895 547 934 365 l 895 548 q 906 586 901 552 q 943 838 937 676 q 919 1020 945 908 q 854 1147 869 1143 l 854 1148 l 856 1151 l 856 1152 q 837 1175 852 1152 l 793 1215 q 775 1229 786 1216 q 761 1237 763 1230 q 809 1245 763 1241 q 883 1277 869 1266 l 879 1284 l 879 1286 "},"d":{"x_min":48.609375,"x_max":1393.0625,"ha":1525,"o":"m 48 6 l 48 455 q 199 456 63 455 q 372 458 334 458 q 400 456 406 458 q 387 456 397 456 q 398 458 390 456 q 523 370 425 427 q 679 284 594 330 q 481 247 608 268 q 288 236 369 240 l 288 6 l 48 6 m 351 219 q 545 229 394 216 q 731 269 656 244 q 941 226 787 252 q 1104 211 1072 211 q 740 179 791 179 q 351 219 708 179 m 1393 4 l 1161 4 l 1161 229 q 205 972 245 262 q 354 1326 193 1181 q 740 1461 512 1468 q 1137 1308 987 1454 q 1279 962 1281 1168 q 1179 631 1275 761 q 1029 494 1136 573 l 793 573 q 933 709 915 684 q 1022 948 1022 819 q 912 1165 1022 1081 q 747 1229 826 1227 q 600 1198 670 1229 q 458 977 456 1137 q 654 594 459 730 q 1056 455 801 491 q 1391 430 1138 443 l 1393 4 "},",":{"x_min":137.5,"x_max":859.71875,"ha":968,"o":"m 858 -9 l 141 -9 l 141 995 l 298 995 l 298 120 l 859 119 l 858 -9 m 850 858 l 270 858 l 270 1002 l 850 1002 l 850 858 m 854 1113 l 137 1113 l 137 2119 l 294 2119 l 294 1244 l 855 1243 l 854 1113 m 848 1977 l 290 1977 l 290 2122 l 848 2122 l 848 1977 "},"Y":{"x_min":63.890625,"x_max":1381.953125,"ha":1454,"o":"m 1294 2120 l 1297 2118 l 1293 2111 q 1361 1850 1329 2013 l 1370 1775 l 1368 1772 l 1368 1769 l 1381 1663 l 1379 1661 l 1381 1634 l 1381 1616 q 1334 1325 1381 1441 q 1216 1133 1287 1205 q 1131 1058 1206 1111 q 913 991 1025 991 l 913 994 l 911 991 q 751 1023 833 991 q 712 1044 751 1027 q 618 1131 654 1090 l 615 1133 l 612 1133 l 609 1131 l 609 1129 l 618 1118 l 612 1112 l 612 1109 l 620 1108 l 618 1105 l 618 1102 q 733 1013 666 1044 q 887 973 794 987 l 898 976 l 922 973 q 948 984 937 973 l 951 984 q 972 894 963 973 q 869 608 972 740 l 862 604 l 859 604 q 772 719 848 625 l 756 716 l 754 719 l 754 722 q 815 884 815 820 q 733 990 815 990 l 725 990 q 672 931 688 990 l 670 893 q 754 705 670 811 l 966 430 l 1119 233 q 1208 112 1208 126 l 1077 11 l 1069 11 q 883 265 1020 66 l 576 681 q 502 884 511 788 l 502 894 q 580 1094 502 1016 l 580 1100 l 576 1100 q 518 1044 547 1100 q 497 987 506 1026 l 488 981 q 420 997 484 987 q 284 1081 313 1038 q 193 1188 222 1137 q 111 1341 144 1255 q 76 1472 76 1443 l 79 1472 q 63 1606 69 1505 l 63 1611 q 166 2100 63 1851 l 166 2108 l 169 2108 q 266 2058 183 2108 l 300 2044 l 302 2047 l 311 2029 q 237 1837 280 2029 l 213 1693 l 216 1690 l 213 1651 l 213 1583 l 216 1572 l 213 1569 l 213 1566 q 290 1318 231 1416 q 444 1144 337 1200 q 536 1120 506 1120 l 609 1133 q 580 1186 609 1144 q 536 1270 551 1234 q 494 1506 494 1394 q 552 1731 494 1623 l 597 1784 q 683 1829 644 1822 l 683 1826 l 727 1834 q 812 1808 781 1826 q 966 1587 915 1748 l 983 1506 l 980 1504 l 983 1491 l 983 1475 l 984 1438 l 983 1430 l 984 1422 q 969 1318 976 1318 l 972 1309 q 893 1168 929 1197 l 875 1168 q 769 1229 769 1204 l 769 1230 q 825 1456 825 1333 l 825 1475 l 827 1491 q 733 1687 795 1687 q 677 1645 694 1676 q 654 1563 654 1601 l 651 1548 l 648 1548 l 651 1545 l 648 1498 q 756 1200 648 1311 q 895 1144 823 1144 l 904 1141 l 904 1138 l 906 1141 l 916 1141 q 1101 1223 1037 1141 q 1231 1663 1231 1329 q 1181 1984 1231 1761 q 1152 2073 1172 2006 l 1294 2120 m 636 1136 l 644 1126 q 727 1141 675 1141 l 756 1138 l 765 1141 q 872 1100 825 1130 q 951 1005 933 1059 l 954 1005 l 961 1011 q 887 1105 931 1087 q 772 1155 862 1137 l 722 1156 q 636 1138 636 1152 l 636 1136 m 627 561 l 633 561 q 656 527 641 558 q 741 425 734 425 l 741 422 l 704 372 l 438 0 l 431 0 l 305 94 l 630 554 l 627 561 "},"E":{"x_min":50,"x_max":1037.96875,"ha":1250,"o":"m 323 709 q 350 789 325 752 q 401 848 375 826 q 479 833 419 841 q 536 840 512 831 q 558 865 561 848 q 500 898 554 906 q 381 875 397 883 q 301 709 325 840 q 297 675 297 693 q 659 320 297 487 q 904 151 783 262 q 1037 -69 1045 22 q 984 4 1040 -48 q 688 158 890 93 q 388 262 437 241 q 180 406 250 320 q 72 683 98 506 q 68 726 68 705 q 263 991 68 894 q 527 1058 415 1068 q 695 1006 620 1050 q 801 859 793 951 q 712 702 808 763 q 509 656 623 648 q 323 709 373 666 m 65 820 q 152 951 88 898 q 327 1043 188 980 q 325 1088 325 1091 q 588 1377 325 1233 q 850 1512 729 1454 q 933 1569 894 1533 q 1025 1722 1004 1631 q 952 1643 987 1666 q 679 1538 865 1580 q 50 962 50 1397 q 65 820 50 897 "},"\"":{"x_min":65.28125,"x_max":1036.109375,"ha":1082,"o":"m 611 1906 q 697 1793 693 1909 q 804 1625 754 1669 q 988 1545 868 1577 q 1036 1531 1036 1545 q 1005 1519 1034 1520 q 659 1640 802 1512 q 551 1826 554 1731 l 551 1845 q 611 1906 548 1887 m 320 1526 l 368 1525 l 409 1526 l 491 1525 l 495 1529 l 515 1526 l 554 1527 l 573 1523 l 570 1484 l 576 1465 l 572 1441 l 575 1391 l 570 1387 l 575 1383 l 570 1281 l 575 1263 l 575 1052 l 570 1041 l 575 1037 l 570 955 l 575 931 l 568 920 l 572 901 l 573 862 l 569 858 l 573 854 q 563 800 572 800 q 502 872 518 845 q 401 980 495 870 q 316 1070 323 1055 l 319 1347 l 322 1351 l 326 1351 l 318 1375 l 322 1379 l 318 1390 l 319 1444 l 315 1463 l 318 1487 l 318 1502 l 309 1515 l 309 1522 l 320 1526 m 181 1148 l 190 1148 l 338 990 l 806 520 l 806 516 l 698 415 l 686 415 l 590 505 l 591 563 l 588 652 l 594 723 q 581 738 584 722 l 573 737 l 566 730 l 568 675 l 565 655 l 569 633 l 570 601 l 568 577 l 572 566 l 569 547 l 573 504 q 572 247 579 247 l 576 225 l 576 216 l 572 212 l 576 208 l 575 48 l 570 48 l 575 45 l 575 29 l 568 22 l 559 20 l 490 23 l 481 22 l 481 19 l 443 20 l 326 16 l 318 25 l 318 29 l 322 33 l 318 36 l 318 40 l 322 137 l 318 141 l 323 227 l 319 230 l 320 277 l 318 375 l 322 379 l 318 383 l 319 429 l 318 468 q 322 588 315 566 l 318 600 l 319 670 l 315 686 l 318 690 l 318 694 l 313 697 l 313 701 q 325 729 318 729 q 443 683 375 680 q 554 756 555 719 l 545 763 l 508 736 l 443 709 l 426 709 l 423 713 l 419 709 l 415 709 q 323 772 325 740 l 327 772 l 65 1031 l 65 1038 l 151 1120 l 181 1148 "},"g":{"x_min":-91.671875,"x_max":1056.953125,"ha":1406,"o":"m 316 1990 l 319 1990 l 425 1893 l 425 1884 l 298 1752 l 295 1737 q 379 1654 313 1727 q 588 1393 534 1494 q 658 1269 623 1355 q 702 1059 688 1208 l 702 1041 q 631 808 683 894 q 556 700 602 748 q 406 609 473 623 q 343 597 406 605 q 166 700 219 597 q 145 780 154 726 l 148 795 l 148 834 q 216 987 158 916 q 400 1122 336 1109 q 459 1150 418 1134 l 472 1150 q 493 1041 493 1150 l 493 1026 l 495 1005 l 400 951 q 304 813 304 894 q 343 762 308 762 l 345 759 q 420 795 402 772 q 520 1047 520 904 q 487 1218 520 1125 q 337 1461 481 1281 q 177 1618 250 1561 l 166 1618 q 52 1494 166 1611 q -58 1584 -38 1584 l -58 1587 l 63 1719 q 1 1776 62 1731 l -91 1851 l -91 1863 q 9 1980 -45 1925 l 16 1980 q 172 1845 25 1963 l 177 1845 q 316 1990 295 1975 m 727 1147 q 913 1036 786 1138 q 1048 741 1048 863 q 1056 612 1056 741 l 1056 597 q 1000 330 1040 426 q 891 79 970 230 q 841 -8 848 -6 l 834 -8 l 706 66 q 691 79 697 66 l 691 87 q 800 283 715 115 q 883 636 883 473 l 883 645 q 844 813 870 736 q 745 943 822 876 l 712 966 l 725 1029 l 720 1033 l 725 1054 l 725 1077 l 715 1140 l 727 1147 "},"²":{"x_min":16.78125,"x_max":449.78125,"ha":489,"o":"m 449 508 l 16 508 q 194 720 26 599 q 312 814 294 793 q 339 872 339 844 q 241 949 339 949 q 173 931 195 949 q 136 869 150 914 l 32 880 q 244 1031 72 1031 q 380 1001 326 1031 q 447 889 447 964 q 405 779 447 832 q 370 746 398 769 q 306 695 341 723 q 236 640 270 668 q 182 593 201 612 l 449 593 l 449 508 "},"e":{"x_min":60.640625,"x_max":1048.609375,"ha":1246,"o":"m 775 805 q 748 725 773 762 q 697 666 723 688 q 619 681 679 673 q 561 675 586 683 q 540 650 537 666 q 598 616 544 608 q 716 640 701 631 q 797 805 773 675 q 801 840 801 822 q 438 1194 801 1027 q 194 1363 315 1252 q 61 1584 52 1493 q 113 1511 58 1563 q 409 1356 208 1422 q 709 1252 661 1273 q 918 1108 848 1194 q 1026 831 1000 1008 q 1030 788 1030 809 q 834 523 1030 620 q 570 456 683 447 q 402 508 477 465 q 297 655 305 563 q 386 812 290 751 q 588 858 475 866 q 775 805 725 848 m 1033 694 q 945 563 1009 616 q 770 472 909 534 q 773 426 773 423 q 509 137 773 281 q 248 2 369 61 q 165 -54 204 -18 q 73 -206 94 -116 q 145 -127 111 -151 q 419 -23 233 -65 q 1048 552 1048 118 q 1033 694 1048 618 "},"J":{"x_min":40.28125,"x_max":1723.609375,"ha":1803,"o":"m 870 1683 l 870 1679 l 875 1683 l 877 1683 q 1347 1534 1127 1683 q 1398 1502 1347 1529 l 1473 1437 q 1640 1191 1618 1277 q 1712 950 1687 1116 l 1723 852 l 1719 830 q 1543 320 1719 559 q 1344 140 1433 195 q 1112 31 1251 76 q 902 0 975 0 l 866 0 q 318 209 576 0 q 159 401 206 325 q 44 783 44 616 l 40 787 l 40 790 l 44 794 l 44 798 l 40 823 l 44 848 l 40 859 l 44 862 l 44 866 l 40 888 q 123 1205 63 1086 q 268 1415 163 1294 q 376 1512 368 1512 q 658 1650 523 1618 l 722 1668 l 726 1665 l 730 1665 q 870 1683 730 1672 m 437 1462 l 455 1458 l 459 1458 l 459 1462 l 451 1469 l 444 1469 l 437 1462 m 863 1437 l 845 1440 q 643 1394 731 1430 q 455 1263 518 1336 q 297 988 337 1140 l 288 975 l 293 970 l 293 968 q 279 844 279 893 q 306 654 279 722 q 354 534 306 630 q 466 393 406 448 q 581 306 523 340 q 636 284 581 298 l 733 245 l 737 248 l 740 248 l 816 234 l 820 238 l 856 234 l 875 234 l 877 230 l 881 234 l 900 234 q 1155 302 1004 234 q 1441 627 1350 406 q 1484 826 1484 770 l 1480 852 l 1484 855 l 1484 859 q 1430 1087 1484 945 q 1236 1329 1386 1194 q 1094 1404 1148 1383 q 911 1444 1044 1422 l 863 1437 m 856 1250 l 870 1245 l 895 1245 l 900 1241 l 902 1245 l 913 1245 l 918 1241 l 920 1245 q 1116 1173 1009 1240 q 1227 1036 1205 1090 q 1279 884 1252 1006 l 1279 848 l 1281 819 q 1238 654 1261 690 q 993 451 1163 511 q 888 433 980 444 l 875 437 l 863 433 q 665 494 776 433 q 509 679 556 562 q 480 769 493 715 l 484 780 l 477 837 q 516 1000 477 931 q 690 1195 552 1106 q 856 1250 795 1250 m 733 993 l 730 997 l 726 997 q 704 961 723 979 q 665 801 665 900 q 762 656 702 687 q 870 625 816 625 q 1076 751 1006 625 l 1094 826 q 1044 975 1094 918 q 895 1051 963 1051 l 884 1047 l 875 1051 q 744 1004 784 1036 l 733 993 m 1672 1000 l 1672 993 l 1683 993 l 1683 1000 l 1672 1000 m 44 1806 l 1713 1806 l 1713 2002 l 40 2002 l 44 1806 "},"±":{"x_min":54,"x_max":727,"ha":728,"o":"m 450 180 l 331 180 l 331 461 l 54 461 l 54 576 l 331 576 l 331 853 l 450 853 l 450 576 l 727 576 l 727 461 l 450 461 l 450 180 m 727 117 l 727 0 l 54 0 l 54 117 l 727 117 "},"|":{"x_min":130.5625,"x_max":1425,"ha":1522,"o":"m 1425 1588 l 1422 1555 l 1425 1544 l 1422 1527 l 1423 1438 l 1418 1418 l 1368 1420 l 1234 1418 l 1230 1422 l 1227 1418 l 1220 1418 l 1200 1420 l 1197 1418 l 1180 1420 l 1133 1419 l 1097 1415 l 1094 1419 l 1090 1419 l 1087 1415 l 1084 1415 l 1027 1420 l 1011 1418 l 961 1416 l 933 1419 l 906 1416 l 863 1418 l 861 1415 l 861 1412 l 863 1395 l 861 1375 l 861 1372 l 865 1358 l 861 1355 l 862 1345 l 865 1345 l 862 1322 l 863 1255 l 861 1241 l 863 1229 l 861 1225 l 863 1222 l 863 1218 l 861 1201 l 861 1195 l 863 1195 l 861 1172 l 863 1072 l 859 1068 l 863 1065 l 863 1022 l 861 1011 l 865 995 l 865 972 l 862 908 l 866 905 l 863 881 l 863 831 l 861 827 q 877 784 861 784 q 1016 670 879 777 l 1027 654 l 952 559 l 945 559 l 870 629 l 858 611 l 865 575 l 862 565 l 865 548 l 863 461 l 868 458 l 868 455 l 863 441 l 868 438 l 865 422 l 865 361 l 863 294 l 866 291 l 873 291 q 998 384 968 331 q 1031 427 1023 426 l 1054 427 l 1061 422 l 1062 398 q 958 183 1063 298 q 859 131 886 131 l 863 91 l 865 5 l 862 -13 l 865 -23 l 862 -58 l 866 -70 l 862 -184 l 865 -197 q 856 -247 862 -241 l 783 -243 l 756 -245 l 756 -243 l 752 -245 l 750 -245 l 706 -244 l 693 -247 l 686 -237 l 684 -118 l 687 -113 l 683 -111 l 686 -20 l 683 138 q 530 252 625 137 q 481 418 483 330 q 491 431 486 431 l 494 431 q 586 337 501 431 q 673 298 648 298 l 680 298 l 683 315 l 683 338 l 686 368 l 681 384 l 684 388 l 684 391 l 681 395 l 684 418 l 681 558 l 686 562 l 681 565 l 684 584 l 684 768 l 526 888 l 512 905 q 591 1004 579 998 l 679 934 l 686 934 l 684 975 l 687 988 l 684 1001 l 687 1045 l 687 1051 l 683 1051 l 686 1075 l 684 1168 l 687 1198 l 684 1212 l 686 1275 l 686 1281 l 683 1281 l 686 1305 l 684 1386 l 687 1405 l 684 1415 l 620 1413 l 616 1418 l 613 1413 l 463 1415 l 433 1413 l 430 1418 l 420 1413 l 363 1416 l 354 1412 l 323 1415 l 156 1416 l 133 1412 l 130 1415 l 130 1419 l 130 1588 l 134 1593 l 137 1593 l 223 1590 l 237 1591 l 240 1587 l 244 1591 l 247 1591 l 261 1587 l 263 1591 l 287 1588 l 454 1591 l 475 1588 l 477 1591 l 518 1588 l 684 1591 l 687 1608 l 686 1652 l 688 1688 l 686 1691 l 686 1695 l 688 1748 l 687 1795 l 680 1802 l 620 1801 l 616 1804 l 613 1801 l 583 1800 l 550 1802 l 520 1798 l 516 1798 l 506 1809 l 505 1872 l 508 1893 l 505 1895 l 508 1912 l 508 1952 l 513 1959 l 630 1961 l 634 1958 l 637 1961 l 680 1962 q 686 2058 687 1994 l 684 2145 l 691 2152 l 708 2152 l 751 2150 l 768 2154 l 777 2150 l 808 2154 l 811 2154 l 830 2151 l 847 2155 l 851 2155 l 858 2148 l 855 2058 l 852 2055 l 852 2051 l 859 2041 l 854 1984 l 856 1981 l 856 1979 l 854 1968 l 863 1962 l 951 1963 l 963 1966 l 977 1963 l 997 1963 l 1011 1968 q 1041 1955 1041 1963 l 1041 1931 l 1045 1868 l 1043 1865 l 1043 1861 l 1047 1831 l 1047 1818 l 1033 1805 l 961 1804 l 947 1806 l 933 1802 l 897 1802 l 863 1805 q 854 1798 863 1798 l 861 1768 l 863 1641 l 859 1638 l 863 1634 l 856 1595 l 877 1588 l 891 1593 l 925 1590 l 1047 1591 l 1051 1588 l 1061 1591 l 1120 1590 l 1134 1593 l 1170 1590 l 1237 1591 l 1251 1588 l 1254 1591 l 1304 1590 l 1418 1591 l 1420 1588 l 1425 1588 "},"§":{"x_min":55.5625,"x_max":1148.609375,"ha":1217,"o":"m 536 1650 l 554 1650 q 877 1547 765 1650 q 1063 1350 1000 1491 q 1119 1162 1119 1227 l 1119 1100 l 1123 1077 q 1063 880 1104 948 l 1050 854 q 1148 505 1148 698 q 1108 326 1148 445 q 1083 263 1102 326 q 980 147 1025 183 q 712 11 893 61 l 708 15 l 705 15 q 625 0 691 6 q 444 29 444 20 q 206 198 356 55 q 93 494 93 352 l 93 516 q 111 656 93 627 l 106 659 l 106 663 q 173 820 127 738 q 136 876 173 830 q 88 975 95 934 q 59 1100 70 994 l 59 1184 q 144 1411 75 1319 q 422 1620 297 1593 q 536 1650 456 1634 m 279 1166 q 316 990 279 1030 l 404 1044 q 602 1093 505 1093 l 605 1093 q 877 1023 733 1093 l 880 1023 q 902 1100 888 1029 l 900 1118 l 902 1118 l 900 1122 l 900 1133 q 719 1415 900 1306 l 661 1433 l 656 1430 l 591 1437 q 404 1381 527 1437 q 301 1243 318 1305 q 279 1166 288 1243 m 462 840 q 602 800 548 800 q 763 847 670 800 l 763 850 q 656 883 708 883 l 616 883 l 602 887 q 466 850 505 876 l 462 847 l 462 840 m 625 597 l 609 597 q 419 630 558 597 q 359 656 419 636 l 319 693 q 290 565 290 643 l 294 525 l 290 525 q 345 359 298 440 q 562 227 451 227 l 584 223 l 584 219 l 587 223 l 605 219 l 668 219 q 804 279 762 245 q 906 400 879 330 q 936 531 919 400 l 936 561 q 902 704 936 633 l 900 704 q 625 597 776 597 m 63 1806 l 1123 1806 l 1123 1923 l 55 1923 l 63 1806 "},"©":{"x_min":3,"x_max":1050,"ha":1078,"o":"m 526 1036 q 661 1017 594 1036 q 788 965 729 999 q 897 883 848 931 q 980 774 947 834 q 1033 645 1016 712 q 1050 510 1050 578 q 1031 374 1050 441 q 979 248 1013 307 q 895 139 944 188 q 787 56 847 89 q 526 -13 661 -13 q 264 57 384 -13 q 72 249 139 128 q 3 510 3 371 q 21 647 3 580 q 75 775 40 715 q 159 885 109 835 q 269 967 208 934 q 526 1036 397 1036 m 526 948 q 306 889 409 948 q 147 730 202 831 q 89 510 89 624 q 148 290 89 392 q 308 133 207 188 q 526 75 412 75 q 695 109 616 75 q 834 204 775 144 q 929 342 894 263 q 964 510 964 421 q 904 732 964 628 q 741 891 844 835 q 526 948 637 948 m 694 426 l 780 401 q 688 261 756 311 q 527 211 619 211 q 322 297 395 211 q 253 509 253 375 q 385 772 253 700 q 533 806 449 806 q 769 641 722 806 l 685 622 q 530 728 644 728 q 390 661 440 728 q 347 508 347 601 q 385 358 347 414 q 522 292 433 292 q 632 328 585 292 q 694 426 678 365 "},"^":{"x_min":-137.5,"x_max":169.4375,"ha":219,"o":"m 30 1326 l 30 1326 q 156 1248 109 1326 l 169 1191 q 143 1105 169 1155 q 100 1061 118 1070 q 68 1036 100 1054 q 12 1011 19 1011 l 6 1011 q -9 1054 -9 1029 q 118 1191 118 1116 q 18 1270 102 1270 q -101 1220 -50 1254 l -106 1216 q -137 1251 -113 1216 q 30 1326 -54 1326 "},"«":{"x_min":37.5,"x_max":898.609375,"ha":975,"o":"m 898 1683 l 418 840 l 898 -1 l 625 -1 l 37 840 l 625 1683 l 898 1683 "},"q":{"x_min":68.0625,"x_max":1294.453125,"ha":1379,"o":"m 330 648 q 317 605 326 663 q 327 425 308 547 l 327 391 q 444 165 344 270 q 777 20 575 27 q 1198 184 1065 12 q 1294 479 1294 306 q 1144 833 1294 712 q 866 941 1038 918 q 173 952 790 944 l 183 720 q 851 702 736 720 q 1026 479 1025 638 q 823 270 1027 287 q 711 277 744 263 q 627 318 677 291 q 561 404 570 377 q 542 500 551 430 q 527 519 533 569 q 537 581 547 479 q 519 656 537 629 q 486 656 513 645 q 465 637 491 663 q 476 661 475 645 q 437 663 470 676 q 330 648 381 665 m 159 952 l 173 706 l 161 954 l 161 715 l 159 952 m 759 513 l 759 513 m 305 969 l 543 963 l 556 1043 l 548 1244 l 468 1411 l 394 1547 l 259 1668 l 175 1743 l 68 1818 l 133 1715 l 202 1616 l 295 1444 l 315 1276 l 320 1184 l 315 1038 l 305 969 "},"b":{"x_min":54.15625,"x_max":1040.28125,"ha":1124,"o":"m 586 798 l 586 1152 l 501 1152 l 501 798 l 586 798 m 359 922 l 722 922 l 722 1004 l 359 1004 l 359 922 m 898 1140 q 361 433 601 747 q 297 236 297 348 q 345 70 297 129 q 431 25 368 44 q 559 5 494 5 q 676 34 637 5 q 775 245 775 106 q 668 530 775 393 l 568 394 q 627 276 625 304 q 604 175 636 205 q 540 144 573 144 q 476 179 505 144 q 452 250 452 219 q 484 330 452 286 q 1040 1100 718 654 q 1029 1113 1025 1106 q 898 1140 904 1140 m 522 687 q 187 1156 301 991 q 54 1090 52 1087 q 244 804 151 927 q 423 561 426 562 l 522 687 "},"D":{"x_min":102.78125,"x_max":1690.28125,"ha":1808,"o":"m 145 -4 l 145 516 q 319 518 163 516 q 518 520 475 520 q 550 518 558 520 q 534 518 547 518 q 547 520 538 518 q 691 419 577 484 q 870 318 773 373 q 643 273 788 298 q 422 262 515 266 l 422 -4 l 145 -4 m 494 241 q 716 254 543 240 q 930 300 844 270 q 1170 250 995 281 q 1358 231 1320 231 q 940 195 998 195 q 494 241 902 195 m 1690 -8 l 1423 -8 l 1423 252 q 325 1120 373 293 q 497 1533 311 1363 q 940 1690 679 1698 q 1397 1512 1223 1681 q 1558 1108 1562 1347 q 1444 723 1554 873 q 1272 562 1395 654 l 1001 655 q 1162 812 1140 784 q 1263 1091 1263 941 q 1137 1344 1263 1247 q 948 1418 1038 1418 q 779 1384 861 1418 q 615 1125 615 1312 q 840 679 618 837 q 1304 516 1011 559 q 1688 487 1398 502 l 1690 -8 m 102 1934 l 1676 1934 l 1676 2156 l 104 2158 l 102 1934 "},"z":{"x_min":56.9375,"x_max":1245.828125,"ha":1246,"o":"m 680 1601 l 775 1587 q 1080 1422 950 1547 l 1118 1366 q 1184 1184 1151 1333 l 1191 1131 l 1191 1072 l 1188 1069 l 1191 1065 l 1184 1026 l 1188 1023 l 1188 1019 q 1090 800 1163 894 q 926 638 1044 719 q 600 526 744 526 l 530 526 q 309 572 463 526 q 173 659 240 605 q 113 775 113 740 l 113 816 q 254 998 113 895 q 547 1079 386 1079 q 883 991 727 1079 l 912 968 q 802 862 900 933 l 751 827 l 747 827 q 562 880 629 880 q 362 823 416 880 l 355 802 l 355 781 q 431 736 355 762 l 436 740 l 438 740 l 498 726 q 730 775 650 738 q 956 981 884 843 q 984 1106 984 1037 l 984 1118 q 883 1311 984 1208 q 673 1376 780 1376 l 670 1380 q 509 1341 618 1380 q 344 1237 443 1313 q 219 1387 308 1273 q 197 1419 197 1406 l 256 1468 q 512 1576 433 1576 q 680 1601 512 1587 m 1108 770 q 1168 638 1133 770 l 1181 523 l 1177 523 l 1181 519 l 1181 515 l 1177 487 l 1181 484 l 1181 480 q 1076 201 1181 375 q 919 70 962 77 q 726 1 852 29 l 645 -5 q 376 56 513 -5 q 236 151 313 87 l 201 187 q 348 344 315 320 l 351 344 q 502 238 448 252 q 625 204 506 230 q 809 245 738 204 q 897 330 856 270 q 947 477 947 418 l 947 523 l 933 537 l 936 554 l 929 575 l 933 579 l 926 602 q 1072 722 987 640 l 1108 770 m 56 1811 l 1245 1811 l 1245 1941 l 56 1941 l 56 1811 "},"w":{"x_min":84.71875,"x_max":1329.171875,"ha":1390,"o":"m 104 716 q 130 833 95 716 q 244 1050 170 968 q 506 1158 347 1163 q 758 1138 655 1154 q 897 1125 851 1125 q 951 1127 922 1125 q 1329 1250 1141 1137 q 1144 1069 1258 1154 q 845 952 980 945 q 644 970 720 958 q 540 979 586 981 q 104 716 295 969 m 758 916 q 640 894 758 933 q 416 750 505 850 q 283 387 293 612 q 216 -129 263 -2 q 84 -269 186 -213 q 344 -152 237 -254 q 497 329 509 4 q 558 675 490 520 q 688 862 608 784 q 758 916 723 890 m 733 759 l 731 -66 l 929 -66 l 929 758 l 733 759 m 759 1977 l 634 1977 l 634 2120 l 759 2120 l 759 1977 m 751 1181 l 626 1181 l 626 1919 l 751 1919 l 751 1181 "},"$":{"x_min":50,"x_max":1143.0625,"ha":1244,"o":"m 530 1650 l 548 1650 q 872 1547 759 1650 q 1058 1350 994 1491 q 1113 1162 1113 1227 l 1113 1100 l 1118 1077 q 1058 880 1098 948 l 1044 854 q 1143 505 1143 698 q 1102 326 1143 445 q 1077 263 1097 326 q 975 147 1019 183 q 706 11 887 61 l 702 15 l 700 15 q 619 0 686 6 q 438 29 438 20 q 201 198 351 55 q 87 494 87 352 l 87 516 q 105 656 87 627 l 101 659 l 101 663 q 168 820 122 738 q 130 876 168 830 q 83 975 90 934 q 54 1100 65 994 l 54 1184 q 138 1411 69 1319 q 416 1620 291 1593 q 530 1650 451 1634 m 273 1166 q 311 990 273 1030 l 398 1044 q 597 1093 500 1093 l 600 1093 q 872 1023 727 1093 l 875 1023 q 897 1100 883 1029 l 894 1118 l 897 1118 l 894 1122 l 894 1133 q 713 1415 894 1306 l 655 1433 l 651 1430 l 586 1437 q 398 1381 522 1437 q 295 1243 312 1305 q 273 1166 283 1243 m 456 840 q 597 800 543 800 q 758 847 665 800 l 758 850 q 651 883 702 883 l 611 883 l 597 887 q 461 850 500 876 l 456 847 l 456 840 m 619 597 l 604 597 q 413 630 552 597 q 354 656 413 636 l 313 693 q 284 565 284 643 l 288 525 l 284 525 q 340 359 293 440 q 556 227 445 227 l 579 223 l 579 219 l 581 223 l 600 219 l 662 219 q 798 279 756 245 q 901 400 873 330 q 930 531 913 400 l 930 561 q 897 704 930 633 l 894 704 q 619 597 770 597 m 58 1806 l 1118 1806 l 1118 1998 l 50 1998 l 58 1806 "},"\\":{"x_min":-4.171875,"x_max":973.609375,"ha":1026,"o":"m 793 1704 l 816 1704 q 895 1662 879 1688 q 930 1575 930 1627 l 930 1566 q 870 1463 930 1513 q 793 1445 834 1445 q 697 1508 722 1465 q 679 1580 679 1538 q 775 1701 679 1661 l 793 1704 m 673 1398 l 694 1394 l 748 1394 l 766 1391 l 769 1394 l 772 1394 l 775 1391 l 777 1391 l 787 1394 l 847 1388 l 868 1388 q 895 1376 891 1388 l 895 1352 l 898 1331 l 895 1331 l 898 1329 l 898 1323 l 895 1319 l 898 1316 l 898 1308 l 895 1290 l 898 1259 l 898 1106 l 901 1073 l 898 1058 l 901 1047 l 898 1044 l 901 1013 l 901 737 l 904 711 l 901 693 l 904 683 l 901 675 l 904 612 l 904 602 l 901 600 l 904 597 l 904 450 l 906 437 l 904 426 l 904 413 l 906 387 l 904 383 l 906 356 l 912 77 l 909 69 q 916 36 916 56 l 916 23 q 886 5 912 13 l 859 8 l 850 5 l 847 8 l 844 8 q 718 0 827 0 l 715 2 l 712 2 l 702 0 l 681 2 l 652 0 l 643 2 l 625 0 q 330 54 497 0 q 202 126 213 105 q 156 158 184 126 q 100 219 126 176 q 48 305 72 247 l 52 315 q 25 444 25 369 q 52 558 34 545 l 48 566 q 151 716 101 669 q 466 876 302 851 l 550 894 l 550 891 l 637 905 l 652 902 l 679 905 l 709 902 l 712 902 q 720 918 716 902 l 715 983 l 718 987 l 715 1001 l 715 1011 l 712 1212 l 709 1215 l 705 1215 l 643 1218 l 591 1215 l 591 1218 l 588 1215 l 568 1215 l 555 1218 q 295 1137 408 1205 q 180 930 180 1050 q 223 827 202 827 l 229 809 q 133 737 183 793 l 100 701 q 27 806 45 747 q 4 908 4 883 l 4 923 q 73 1143 4 1062 q 177 1248 73 1162 q 516 1380 381 1366 q 673 1394 516 1387 l 673 1398 m 700 731 q 588 723 619 731 l 588 726 l 552 719 l 547 726 l 537 716 l 529 716 l 526 719 q 304 615 351 663 q 226 506 245 566 q 213 444 213 466 l 213 411 q 288 279 213 356 q 630 186 427 186 l 694 186 q 727 191 715 186 l 720 230 l 723 261 l 723 413 l 720 455 l 723 465 q 712 488 723 488 l 681 486 q 361 519 538 486 q 322 530 361 523 q 306 537 322 537 q 280 558 280 552 q 337 605 313 602 q 495 690 408 661 q 619 675 495 681 l 625 675 l 715 677 l 720 683 l 718 687 l 718 713 l 720 729 l 715 734 l 700 731 m -4 1975 l 973 1975 l 973 1811 l -4 1811 l -4 1975 "},"®":{"x_min":3,"x_max":1050,"ha":1078,"o":"m 526 1036 q 661 1017 594 1036 q 788 965 729 999 q 897 883 848 931 q 980 774 947 834 q 1033 645 1016 712 q 1050 510 1050 578 q 1031 374 1050 441 q 979 248 1013 307 q 895 139 944 188 q 787 56 847 89 q 526 -13 661 -13 q 264 57 384 -13 q 72 249 139 128 q 3 510 3 371 q 21 647 3 580 q 75 775 40 715 q 159 885 109 835 q 269 967 208 934 q 526 1036 397 1036 m 526 948 q 306 889 409 948 q 147 730 202 831 q 89 510 89 624 q 148 290 89 392 q 308 133 207 188 q 526 75 412 75 q 695 109 616 75 q 834 204 775 144 q 929 342 894 263 q 964 510 964 421 q 904 732 964 628 q 741 891 844 835 q 526 948 637 948 m 387 222 l 297 222 l 297 786 l 490 786 q 608 777 571 786 q 697 725 664 763 q 731 633 731 687 q 684 522 731 566 q 569 473 637 477 q 618 444 601 461 q 701 331 653 408 l 769 222 l 658 222 l 608 310 q 556 395 579 362 q 513 441 533 427 q 441 461 487 461 l 387 461 l 387 222 m 387 708 l 387 539 l 497 539 q 635 624 635 539 q 595 693 635 678 q 491 708 555 708 l 387 708 "},"~":{"x_min":61.109375,"x_max":770.828125,"ha":813,"o":"m 61 386 l 61 529 q 252 613 133 613 q 472 553 331 613 q 540 529 511 538 q 591 520 569 520 q 770 614 683 520 l 770 467 q 577 389 687 389 q 379 444 502 389 q 241 481 298 481 q 61 386 155 481 "},"Q":{"x_min":51.390625,"x_max":1277.78125,"ha":1324,"o":"m 70 1941 l 1259 1941 l 1259 2138 l 66 2138 l 70 1941 m 313 648 q 300 605 309 663 q 311 425 291 547 l 311 391 q 427 165 327 270 q 761 20 558 27 q 1181 184 1048 12 q 1277 479 1277 306 q 1127 833 1277 712 q 850 941 1022 918 q 156 952 773 944 l 166 720 q 834 702 719 720 q 1009 479 1008 638 q 806 270 1011 287 q 694 277 727 263 q 611 318 661 291 q 544 404 554 377 q 525 500 534 430 q 511 519 516 569 q 520 581 530 479 q 502 656 520 629 q 469 656 497 645 q 448 637 475 663 q 459 661 458 645 q 420 663 454 676 q 313 648 365 665 m 143 952 l 156 706 l 144 954 l 144 715 l 143 952 m 743 513 l 743 513 m 288 969 l 526 963 l 540 1043 l 531 1244 l 451 1411 l 377 1547 l 243 1668 l 158 1743 l 51 1818 l 116 1715 l 186 1616 l 279 1444 l 298 1276 l 304 1184 l 298 1038 l 288 969 "},"M":{"x_min":42.71875,"x_max":965.484375,"ha":1114,"o":"m 231 718 l 125 679 q 93 609 98 626 q 59 490 70 551 q 48 368 48 430 q 118 115 48 218 q 306 1 191 6 q 462 33 418 -5 q 443 44 455 33 q 415 71 430 55 q 388 105 401 87 q 365 137 375 123 q 345 127 354 131 q 323 126 337 122 q 261 156 287 133 q 218 214 236 180 q 190 291 200 248 q 181 379 181 334 q 194 446 181 395 q 225 551 206 497 q 261 647 243 605 q 291 690 280 690 l 231 718 m 765 712 l 887 754 q 915 815 909 798 q 959 1055 959 933 q 890 1306 959 1204 q 701 1422 816 1416 q 545 1390 588 1429 q 559 1385 545 1401 q 590 1347 572 1369 q 627 1308 608 1326 q 658 1295 647 1290 q 684 1298 666 1301 q 790 1209 754 1280 q 826 1043 826 1137 q 773 845 826 968 q 716 734 723 734 l 765 712 m 887 754 q 906 712 887 759 q 965 451 961 584 q 887 163 969 295 q 629 9 791 6 q 440 84 519 9 q 398 137 419 105 q 361 204 377 169 q 334 272 344 238 q 323 333 323 306 q 365 484 330 427 q 504 562 409 562 q 645 490 595 562 q 675 431 663 466 q 691 360 687 397 q 690 286 695 323 q 669 222 686 250 q 647 193 661 208 q 612 161 633 177 q 548 186 559 175 q 529 202 540 193 q 506 225 519 212 q 579 337 579 279 q 575 375 579 355 q 562 413 570 395 q 541 441 554 430 q 512 452 529 452 q 437 331 443 452 q 450 262 434 297 q 491 200 465 227 q 553 156 518 173 q 626 138 588 138 q 773 259 715 138 q 809 354 798 309 q 820 443 820 400 q 812 510 820 466 q 792 597 804 554 q 767 672 780 640 q 743 704 754 704 l 826 734 q 887 754 870 720 m 125 679 l 120 679 q 107 704 115 686 q 91 744 100 722 q 76 788 83 766 q 65 826 69 811 q 50 904 55 865 q 43 981 44 944 q 60 1131 40 1059 q 120 1269 80 1204 q 379 1423 216 1426 q 568 1348 491 1423 q 609 1296 588 1327 q 647 1229 630 1265 q 674 1160 663 1194 q 684 1098 684 1126 q 643 948 677 1005 q 504 869 597 869 q 362 943 413 869 q 333 1002 345 968 q 316 1072 320 1036 q 317 1145 312 1109 q 338 1209 322 1181 q 395 1270 356 1241 q 436 1259 422 1265 q 461 1247 451 1254 q 479 1231 470 1240 q 501 1208 487 1222 q 429 1095 429 1154 q 433 1056 429 1077 q 445 1018 437 1036 q 466 990 454 1001 q 495 979 479 979 q 570 1101 563 979 q 558 1171 573 1137 q 515 1233 543 1205 q 454 1277 488 1261 q 381 1294 419 1294 q 234 1173 293 1294 q 198 1077 209 1123 q 187 988 187 1031 q 195 923 187 966 q 215 837 204 880 q 240 761 227 794 q 265 729 254 729 l 231 718 l 201 695 q 125 679 138 709 m 258 730 l 277 694 l 237 718 l 204 694 l 181 694 l 258 730 m 725 733 l 748 706 l 765 715 l 725 733 m 886 751 l 880 744 l 868 733 l 854 730 l 833 733 l 886 751 "},"¡":{"x_min":125,"x_max":308.328125,"ha":350,"o":"m 125 2094 l 308 2094 l 308 1915 l 125 1915 l 125 2094 m 129 1806 l 301 1802 l 304 330 l 304 -272 l 129 -272 l 129 330 l 129 1806 "},"C":{"x_min":26.390625,"x_max":1070.828125,"ha":1124,"o":"m 1070 781 l 1069 1511 l 26 1511 l 26 781 l 233 779 l 236 1265 l 426 1265 l 426 4 l 669 4 l 669 1265 l 859 1265 l 859 780 l 1070 781 m 543 2165 q 772 2070 679 2165 q 866 1843 866 1976 q 772 1615 866 1709 q 543 1520 677 1520 q 316 1615 411 1520 q 222 1843 222 1709 q 315 2070 222 1976 q 543 2165 409 2165 m 551 2034 q 413 1979 469 2034 q 356 1843 356 1923 q 413 1706 356 1762 q 551 1650 469 1650 q 689 1706 633 1650 q 745 1843 745 1762 q 689 1979 745 1923 q 551 2034 633 2034 "},"[":{"x_min":58.328125,"x_max":1294.453125,"ha":1365,"o":"m 481 1669 l 488 1669 l 669 1509 l 669 1498 q 488 1272 552 1384 q 427 1180 488 1263 q 297 769 297 908 l 293 737 l 297 733 l 297 730 l 293 687 q 343 443 293 580 q 509 262 406 300 l 548 248 l 552 248 q 644 269 622 248 l 658 269 q 726 230 670 269 q 843 202 794 202 l 859 205 q 895 191 895 201 l 895 188 q 838 127 870 175 q 772 86 830 127 l 626 36 l 591 43 l 587 40 l 530 47 l 505 43 q 329 138 380 77 q 176 312 195 258 q 91 638 91 500 l 88 648 l 91 652 l 88 669 l 88 712 l 84 726 l 88 740 l 88 755 q 144 1080 102 952 l 208 1240 q 379 1530 258 1356 q 481 1669 379 1540 m 800 961 q 987 836 915 961 q 1055 648 1055 741 l 1051 638 l 1055 613 q 1019 486 1055 501 q 952 454 1000 469 l 900 454 q 852 465 891 461 q 829 481 829 476 l 836 493 l 831 518 l 845 620 q 788 737 840 737 l 779 737 q 743 648 743 701 l 743 591 q 870 418 743 462 l 934 418 q 1083 518 1040 454 l 1129 559 l 1136 559 l 1261 426 l 1256 422 l 1256 418 l 1261 415 q 1001 241 1133 269 l 920 227 q 669 305 758 227 l 633 340 q 548 602 548 458 l 548 620 q 662 904 548 786 q 775 956 720 956 l 800 961 m 58 1811 l 1294 1811 l 1294 1970 l 58 1970 l 58 1811 "},"L":{"x_min":19.4375,"x_max":855.5625,"ha":904,"o":"m 850 4 l 38 2 l 38 1326 l 213 1326 l 213 176 l 855 175 l 850 4 m 23 1536 l 854 1536 l 854 1666 l 19 1666 l 23 1536 "},"!":{"x_min":119.4375,"x_max":277.78125,"ha":317,"o":"m 275 252 l 119 258 l 122 1541 l 122 2081 l 277 2081 l 277 1541 l 275 252 m 272 0 l 127 0 l 127 141 l 272 141 l 272 0 "}," ":{"x_min":0,"x_max":0,"ha":378},"{":{"x_min":48.609375,"x_max":1541.671875,"ha":1642,"o":"m 72 1134 l 75 1137 q 334 1079 150 1125 q 350 1076 338 1076 q 594 1018 525 1038 q 823 968 634 1013 q 877 941 869 950 q 1004 852 922 934 q 1079 725 1063 777 q 1052 515 1118 580 q 881 459 981 444 q 751 515 820 462 l 706 547 l 708 548 l 705 548 q 558 850 588 665 l 558 859 l 531 847 l 531 844 l 530 841 l 515 829 l 511 822 l 504 818 q 444 668 443 720 l 445 629 q 504 476 456 569 q 615 333 569 380 q 697 261 676 275 l 695 259 l 698 259 l 705 252 q 901 122 755 202 q 863 52 893 100 l 837 -4 l 834 -4 l 833 -2 l 829 5 q 502 261 659 104 l 501 262 l 493 273 l 490 273 q 363 445 440 323 q 316 577 334 495 q 398 901 286 788 l 412 916 q 525 895 426 929 l 609 880 l 611 877 l 608 875 q 566 862 604 870 l 565 861 l 565 851 q 594 863 568 850 q 679 858 662 865 q 695 809 683 852 q 740 715 705 772 q 781 656 758 680 l 811 629 q 920 584 847 591 l 941 595 q 962 658 963 618 q 898 773 959 712 q 775 850 869 802 q 423 936 765 859 q 95 1009 420 940 l 48 1019 q 72 1134 48 1044 m 451 1506 q 565 1527 534 1526 q 623 1220 569 1520 q 634 1137 638 1144 q 584 1059 576 1068 l 577 1045 q 530 1055 572 1040 l 479 1333 q 448 1505 455 1441 l 451 1506 m 248 1075 l 251 1072 l 259 1076 l 259 1079 l 254 1084 l 248 1075 m 431 950 l 434 944 l 448 940 l 458 948 q 613 997 529 984 l 627 1000 l 630 1001 q 531 991 615 1016 q 445 955 520 990 q 431 950 440 958 m 656 1140 l 666 1147 l 684 1165 q 886 1237 747 1227 q 1013 1215 955 1231 q 1169 1137 1118 1170 q 1297 1030 1226 1101 l 1304 1025 l 1312 1013 l 1318 1009 q 1468 816 1366 961 q 1486 781 1469 806 q 1541 668 1516 733 l 1538 665 l 1422 618 l 1419 620 q 1329 779 1395 680 q 1255 877 1270 862 l 1248 884 l 1244 893 l 1241 893 l 1227 909 q 1102 1015 1152 984 l 1104 1016 q 958 1087 969 1098 q 852 1098 943 1102 q 773 1065 804 1083 l 773 1062 l 750 1048 l 750 1044 l 734 1033 l 718 1013 l 675 1018 l 672 1020 q 658 1101 670 1055 l 654 1131 q 656 1140 659 1137 m 634 1109 l 641 1105 q 654 1068 643 1087 l 658 1026 l 656 1025 l 600 1033 l 598 1036 q 622 1093 593 1041 l 625 1093 l 626 1095 l 634 1109 "},"X":{"x_min":109.71875,"x_max":1443.0625,"ha":1538,"o":"m 284 1488 q 595 1368 420 1488 q 755 1158 743 1218 q 868 893 868 937 q 993 990 884 893 l 1300 1251 l 1304 1255 l 1306 1255 q 1443 1080 1443 1105 q 1338 998 1415 1065 q 1276 944 1329 998 l 915 633 q 1000 240 955 320 q 1144 18 1027 166 q 1365 -101 1236 -76 q 1431 -116 1431 -105 l 1431 -125 q 1330 -148 1431 -141 l 1300 -148 q 915 84 1115 -120 q 770 306 806 219 q 712 458 731 425 l 490 259 l 256 69 l 241 69 l 113 220 l 113 229 l 638 683 q 665 722 665 702 l 665 726 q 619 1029 665 822 q 405 1379 538 1284 q 250 1441 294 1441 l 202 1441 l 125 1430 l 109 1454 q 284 1488 130 1488 "},"P":{"x_min":109.71875,"x_max":1415.28125,"ha":1394,"o":"m 706 523 q 666 752 687 637 q 636 1027 629 976 q 713 1174 647 1118 q 858 1223 779 1230 q 1061 1015 1062 1206 q 886 791 1059 855 q 708 759 798 759 l 748 545 q 901 552 825 550 q 1179 661 1073 576 q 1329 1015 1329 781 q 1233 1309 1329 1187 q 812 1473 1100 1481 q 479 1329 609 1466 q 362 1102 379 1223 q 362 1069 362 1088 q 400 791 362 988 q 450 523 445 556 q 463 379 462 408 q 454 165 463 341 q 354 -163 444 -1 q 226 -358 290 -261 q 395 -200 311 -279 q 600 36 525 -73 q 716 405 716 202 q 706 523 716 462 m 205 759 l 205 544 l 404 544 l 363 759 l 205 759 m 113 1802 l 1415 1802 l 1415 1579 l 109 1579 l 113 1802 "},"%":{"x_min":83.328125,"x_max":1034.71875,"ha":1189,"o":"m 569 1622 q 986 1376 829 1622 q 1034 1166 1034 1273 l 1034 1141 q 1000 959 1027 1036 q 811 761 904 797 q 741 729 781 737 q 569 627 686 627 l 548 627 q 486 648 486 640 q 437 630 462 645 l 422 634 q 380 581 422 618 q 331 438 331 515 q 412 288 331 365 q 559 238 480 238 l 573 238 q 654 259 612 238 q 765 448 765 313 q 716 568 750 508 l 716 572 q 850 683 737 595 q 895 708 869 708 q 1013 463 1013 586 l 1013 413 l 1018 400 q 951 218 1018 330 q 720 36 870 91 q 594 4 619 4 q 297 75 395 4 q 159 201 240 104 q 83 397 106 259 l 83 411 q 177 722 83 618 q 359 855 269 831 l 398 872 q 583 1002 448 1002 q 663 980 608 1002 l 668 980 q 751 1076 722 1009 q 769 1163 769 1122 q 663 1348 769 1280 q 555 1369 612 1369 q 405 1288 448 1347 q 366 1148 366 1238 l 366 1145 l 363 1141 q 408 1026 375 1073 l 415 1019 l 219 893 l 209 893 q 122 1061 170 927 l 104 1155 l 104 1258 q 152 1394 118 1323 q 419 1604 243 1541 q 569 1622 463 1622 m 502 802 q 573 743 502 754 q 647 820 631 743 q 583 883 633 883 l 566 883 q 502 820 502 865 l 502 802 m 709 -54 l 713 -56 l 713 -61 l 709 -65 l 706 -65 l 702 -61 l 702 -56 l 706 -54 l 709 -54 "},"#":{"x_min":63.78125,"x_max":1350,"ha":1403,"o":"m 1102 1636 q 1127 1472 1116 1602 l 1130 1416 l 1127 1416 l 1130 1409 q 1133 1340 1129 1361 l 1130 1331 l 1133 1323 l 1130 1313 l 1133 1312 l 1130 1301 q 1108 1106 1129 1204 q 1037 933 1079 1002 l 1011 897 q 906 801 936 808 q 798 763 837 762 l 798 759 l 808 754 q 918 791 836 754 q 958 818 948 818 l 961 818 q 1052 705 1027 763 q 1133 359 1136 565 l 1133 331 l 1134 323 q 1095 77 1123 190 q 1054 -29 1066 -29 q 925 15 941 15 l 925 18 l 941 70 q 981 202 950 69 q 994 345 994 287 l 994 350 q 961 581 997 484 q 919 663 940 634 q 850 733 908 690 q 793 751 818 747 l 756 751 l 723 745 l 711 765 l 715 769 l 719 769 l 758 762 l 766 763 l 784 759 l 791 759 l 791 761 q 780 768 791 766 l 770 766 l 740 773 l 738 770 l 686 784 l 683 784 l 683 781 q 784 462 787 640 l 784 455 q 723 272 783 375 q 620 198 676 211 l 616 198 l 609 201 l 606 200 l 605 200 q 527 234 551 209 q 465 325 469 290 q 425 484 423 395 l 426 533 q 488 713 427 609 q 504 730 497 718 q 561 691 525 730 l 590 661 q 595 645 595 652 q 551 488 552 576 q 580 372 561 372 q 604 352 580 359 q 640 391 640 361 q 654 458 648 398 l 652 459 l 654 470 l 655 516 q 615 650 644 598 q 573 709 615 659 q 458 761 515 759 q 351 729 351 745 q 262 618 294 700 q 213 420 229 547 l 216 418 l 211 388 l 215 365 l 212 356 q 230 181 215 262 l 244 105 l 268 16 l 191 -11 q 147 -27 161 -27 q 111 88 131 -2 q 83 351 81 244 l 84 420 l 87 450 l 84 456 q 129 651 86 531 q 229 806 147 709 q 383 879 318 880 q 400 883 383 881 l 398 884 l 398 887 q 286 863 320 880 q 255 845 269 844 q 172 933 231 862 l 126 1008 q 63 1309 61 1158 l 66 1316 l 63 1318 l 66 1333 l 66 1365 q 94 1579 68 1437 l 108 1643 l 125 1647 l 130 1641 l 140 1645 l 141 1644 l 181 1647 l 201 1645 l 245 1644 l 248 1641 l 250 1641 q 209 1426 211 1486 l 209 1418 l 202 1355 l 204 1333 l 202 1326 l 205 1270 l 202 1256 q 231 1111 216 1133 q 262 1043 244 1073 q 401 911 329 933 l 441 901 l 454 901 l 497 902 q 522 876 522 901 l 540 872 l 543 873 l 543 876 q 466 981 479 940 q 425 1154 423 1068 l 422 1176 l 425 1194 l 423 1197 l 423 1200 q 472 1359 425 1270 l 509 1412 q 591 1444 568 1445 l 597 1447 l 608 1447 q 684 1419 654 1445 q 766 1281 733 1391 q 781 1168 776 1241 q 711 926 779 1019 l 709 925 l 706 925 q 641 968 684 927 q 620 995 620 987 q 659 1136 658 1070 q 652 1225 661 1209 l 655 1227 l 655 1229 q 625 1293 655 1255 l 601 1304 q 565 1269 586 1304 q 545 1156 547 1213 q 552 1097 548 1151 q 641 947 577 997 q 722 901 666 916 l 759 898 l 766 900 l 766 897 q 897 972 829 897 q 972 1136 940 1027 q 991 1295 986 1213 l 988 1333 l 990 1336 l 990 1337 l 988 1347 l 988 1352 l 991 1355 l 988 1356 l 988 1359 l 991 1361 l 988 1363 l 988 1365 l 991 1368 q 972 1520 986 1455 l 975 1529 q 970 1548 970 1529 q 959 1595 965 1548 l 948 1631 l 968 1636 l 970 1633 l 980 1636 l 995 1636 l 1012 1633 l 1027 1634 l 1036 1633 l 1055 1634 l 1058 1634 l 1070 1631 l 1079 1634 l 1080 1631 l 1083 1631 l 1102 1636 m 1211 1975 l 1211 1975 q 1337 1897 1290 1975 l 1350 1840 q 1323 1754 1350 1804 q 1280 1709 1298 1719 q 1248 1684 1280 1702 q 1193 1659 1200 1659 l 1187 1659 q 1170 1702 1170 1677 q 1298 1840 1298 1765 q 1198 1919 1283 1919 q 1079 1869 1130 1902 l 1073 1865 q 1043 1900 1066 1865 q 1211 1975 1126 1975 "},"_":{"x_min":150,"x_max":813.890625,"ha":918,"o":"m 325 451 l 326 451 q 345 430 336 451 q 488 218 365 406 l 490 218 q 626 402 533 273 l 661 445 l 663 445 q 722 402 701 415 q 656 316 684 350 q 591 222 652 305 q 569 190 570 195 l 576 188 l 606 188 l 612 187 l 616 188 l 629 187 l 636 188 l 669 187 l 720 187 l 729 186 l 736 187 l 737 187 l 738 186 l 740 187 l 747 186 l 750 186 l 770 187 l 770 186 l 772 187 l 777 187 l 784 186 l 793 187 q 813 181 811 187 l 811 141 l 812 137 l 811 118 l 811 106 q 804 101 811 104 l 798 105 l 588 108 l 588 109 l 587 108 l 570 109 l 566 109 l 563 106 l 563 105 l 686 -80 q 697 -97 694 -87 q 704 -108 704 -100 l 704 -112 q 681 -127 701 -116 q 644 -150 652 -150 q 491 79 580 -55 l 490 80 l 488 80 q 445 22 486 80 q 354 -101 433 8 l 318 -148 l 316 -148 l 255 -104 l 255 -101 l 384 76 q 409 111 409 108 l 408 112 l 397 112 l 387 113 l 375 112 l 350 112 l 330 113 l 329 112 l 322 113 l 293 113 l 291 115 l 290 113 l 284 113 l 269 115 l 263 113 l 262 115 l 261 115 l 259 113 l 252 115 l 225 115 l 223 116 l 222 115 l 191 116 l 170 116 l 150 118 l 150 193 l 152 195 l 161 195 l 162 194 l 163 195 l 219 194 l 284 194 l 304 193 l 305 194 l 322 193 l 372 193 l 377 191 l 383 193 l 384 193 l 398 191 l 411 193 l 411 194 l 302 355 q 266 411 266 405 l 266 412 l 325 451 m 293 220 l 295 218 l 293 215 l 290 218 l 293 220 m 258 216 l 261 213 l 258 211 l 255 213 l 258 216 m 484 194 l 484 193 l 487 190 l 494 191 l 494 194 l 491 200 l 490 200 l 484 194 m 427 177 l 427 175 q 438 161 437 161 l 444 158 l 447 158 l 448 165 l 441 173 l 444 176 l 455 176 l 462 177 l 462 180 l 437 183 q 427 177 427 180 m 475 181 q 452 148 452 155 q 469 126 462 133 q 479 118 469 118 q 497 94 486 100 q 515 119 515 113 l 511 126 l 526 147 q 500 180 506 180 l 475 181 m 520 180 l 518 180 l 515 177 l 519 175 l 522 175 l 533 177 l 537 173 q 529 156 529 162 l 530 155 l 531 155 l 550 177 l 550 179 l 547 181 l 520 180 m 475 165 l 476 163 l 477 163 l 481 165 q 495 138 495 145 l 495 137 q 479 113 486 118 l 469 113 q 444 136 454 136 l 444 141 l 458 163 l 475 165 m 431 122 l 431 120 l 459 120 l 459 122 l 456 125 l 455 125 l 445 123 l 443 127 l 448 136 l 448 140 l 445 143 q 431 122 431 130 m 529 137 l 529 133 l 534 126 l 534 123 l 533 122 l 533 120 l 523 122 l 519 122 q 530 118 519 119 l 536 119 l 541 118 l 543 122 l 534 137 l 529 137 m 500 119 l 504 115 l 495 105 q 487 118 490 111 l 488 119 l 500 119 "},"+":{"x_min":79,"x_max":752,"ha":757,"o":"m 475 164 l 356 164 l 356 444 l 79 444 l 79 561 l 356 561 l 356 837 l 475 837 l 475 561 l 752 561 l 752 444 l 475 444 l 475 164 "},")":{"x_min":86.109375,"x_max":490.28125,"ha":464,"o":"m 193 -300 l 86 -300 q 336 933 336 315 q 219 1781 336 1369 q 169 1936 202 1838 q 86 2166 136 2033 l 193 2166 q 490 936 490 1561 q 193 -300 490 279 "},"'":{"x_min":62.5,"x_max":845.828125,"ha":850,"o":"m 679 1575 q 712 1545 697 1575 l 712 1537 q 645 1445 712 1504 q 383 816 383 1105 q 470 462 383 676 l 583 270 l 741 87 q 762 33 762 56 l 762 25 q 725 0 745 0 q 516 100 629 34 q 283 291 416 158 q 95 595 162 429 q 62 758 62 691 l 62 833 q 141 1137 69 993 q 325 1375 191 1243 q 391 1437 368 1402 l 487 1504 l 587 1550 q 679 1575 626 1566 m 66 1909 l 845 1909 l 845 1733 l 62 1733 l 66 1909 "},"ª":{"x_min":33,"x_max":498.78125,"ha":558,"o":"m 380 591 q 202 518 294 518 q 82 557 131 518 q 33 669 33 597 q 80 774 33 741 q 202 819 127 808 l 304 833 q 334 839 318 835 q 371 847 351 842 q 344 931 371 908 q 261 954 318 954 q 147 866 159 954 l 51 891 q 123 1000 61 965 q 264 1036 184 1036 q 412 1002 362 1036 q 471 866 471 961 l 469 658 q 498 530 469 568 l 395 530 q 385 559 388 544 q 380 591 382 574 m 370 766 q 314 756 353 762 q 236 741 276 751 q 166 714 197 731 q 136 669 136 696 q 163 618 136 635 q 226 601 191 601 q 312 625 273 601 q 364 694 350 649 q 370 766 370 709 "},"}":{"x_min":-8.328125,"x_max":1523.609375,"ha":1578,"o":"m 1130 1491 l 1134 1488 q 1076 1229 1122 1413 q 1072 1213 1072 1226 q 1015 970 1034 1038 q 963 741 1009 929 q 937 686 945 694 q 850 559 931 641 q 720 484 775 501 q 511 511 577 445 q 456 683 440 583 q 511 813 459 744 l 543 856 l 544 855 l 544 858 q 845 1006 661 975 l 855 1006 l 843 1031 l 840 1031 l 838 1033 l 826 1048 l 818 1054 l 815 1059 q 663 1119 716 1120 l 625 1118 q 472 1059 565 1108 q 329 948 376 995 q 256 866 272 887 l 255 868 l 255 865 l 250 858 q 119 662 200 809 q 50 700 95 670 l -8 726 l -8 730 l -5 731 l 2 734 q 256 1061 100 904 l 258 1063 l 269 1070 l 269 1073 q 443 1200 319 1125 q 575 1247 493 1229 q 898 1165 786 1277 l 912 1151 q 891 1040 925 1138 l 876 954 l 875 952 l 872 956 q 859 997 868 961 l 856 998 l 848 998 q 861 970 845 995 q 854 886 862 902 q 805 868 850 880 q 711 825 769 859 q 652 781 677 806 l 625 754 q 580 643 587 716 l 591 623 q 654 601 613 601 q 769 665 708 605 q 845 790 798 695 q 933 1140 855 798 q 1006 1468 937 1144 l 1016 1515 q 1130 1491 1041 1515 m 1502 1113 q 1523 998 1522 1029 q 1216 940 1518 994 q 1134 929 1141 925 q 1055 980 1063 988 l 1043 986 q 1052 1033 1036 993 l 1330 1084 q 1501 1115 1437 1108 l 1502 1113 m 1070 1316 l 1068 1312 l 1072 1305 l 1076 1305 l 1080 1309 l 1070 1316 m 947 1131 l 940 1129 l 936 1115 l 945 1105 q 994 950 980 1034 l 995 936 l 997 934 q 987 1031 1012 950 q 951 1118 986 1044 q 947 1131 955 1125 m 1137 908 l 1143 898 l 1162 879 q 1234 677 1225 816 q 1211 551 1227 608 q 1134 395 1166 447 q 1027 266 1098 337 l 1020 259 l 1009 252 l 1006 245 q 813 97 958 197 q 779 77 804 95 q 663 23 729 47 l 661 26 l 613 143 l 616 145 q 776 234 676 169 q 875 308 859 293 l 880 315 l 888 319 l 888 323 l 905 337 q 1011 461 980 412 l 1012 459 q 1083 605 1094 595 q 1094 711 1098 620 q 1061 791 1080 761 l 1058 791 l 1044 815 l 1041 815 l 1030 829 l 1009 845 l 1015 888 l 1018 891 q 1097 905 1051 893 l 1127 911 q 1137 908 1134 904 m 1105 929 l 1102 923 q 1065 911 1084 922 l 1022 905 l 1020 908 l 1030 963 l 1031 965 q 1090 941 1037 972 l 1090 938 l 1091 937 l 1105 929 "},"a":{"x_min":190.28125,"x_max":1533.328125,"ha":1660,"o":"m 681 769 q 441 1109 686 772 q 190 1454 315 1281 q 397 1600 288 1526 q 608 1273 418 1562 q 826 965 812 965 l 681 769 m 870 537 q 988 347 984 388 q 958 201 1000 244 q 876 159 919 159 q 770 218 816 159 q 736 341 736 283 q 784 479 736 405 q 1533 1454 1070 900 q 1436 1531 1526 1458 q 1343 1601 1351 1601 q 1343 1600 1343 1601 q 1080 1259 1211 1429 q 630 652 765 848 q 525 327 525 498 q 604 58 525 175 q 855 -48 676 -48 q 1041 -4 965 -48 q 1212 261 1212 95 q 1000 711 1212 425 l 870 537 m 897 1434 l 823 1434 l 823 1437 l 581 1437 l 577 1355 l 893 1355 l 897 1377 l 897 1355 l 1122 1355 l 1122 1437 l 897 1437 l 897 1434 m 812 1437 l 812 1675 l 890 1675 l 887 1437 l 812 1437 m 893 1118 l 811 1118 l 811 1355 l 893 1355 l 893 1118 "},"T":{"x_min":5.5625,"x_max":1534.71875,"ha":1665,"o":"m 700 -222 l 700 461 l 5 461 l 5 619 l 695 618 l 695 1276 l 852 1276 l 852 619 l 1534 620 l 1534 456 l 858 456 l 856 -222 l 700 -222 "},"=":{"x_min":41.671875,"x_max":838.890625,"ha":918,"o":"m 836 1094 l 234 1094 l 234 5 l 73 5 l 75 1255 l 831 1252 l 836 1094 m 48 1466 l 838 1466 l 838 1634 l 41 1634 l 48 1466 "},"N":{"x_min":75,"x_max":1327.78125,"ha":1389,"o":"m 533 738 l 669 565 q 465 290 655 565 q 268 1 287 34 q 75 130 168 66 q 309 436 191 283 q 533 738 537 736 m 709 944 l 830 790 q 1029 1190 1029 1045 q 869 1426 1029 1337 q 695 1465 798 1465 q 461 1369 529 1465 q 387 1130 387 1266 q 486 841 387 979 q 905 302 611 668 q 1150 1 1027 152 q 1151 0 1150 0 q 1237 62 1159 0 q 1327 131 1320 127 q 630 997 897 622 q 584 1119 584 1061 q 616 1227 584 1170 q 715 1280 659 1280 q 791 1243 755 1280 q 819 1113 830 1204 q 709 944 815 1077 "},"2":{"x_min":40.453125,"x_max":936.109375,"ha":947,"o":"m 289 889 l 214 970 l 272 1025 q 333 997 301 1025 q 391 931 365 970 q 433 846 416 891 q 450 766 450 801 q 442 711 450 741 q 420 654 434 680 q 385 610 405 628 q 338 592 365 592 q 244 639 279 592 q 214 734 214 682 q 289 889 216 859 m 330 692 q 364 739 364 692 q 330 786 364 786 q 300 739 300 786 q 330 692 300 692 m 411 953 l 465 880 q 519 901 500 901 q 573 884 550 901 q 611 839 596 867 q 636 776 627 812 q 646 702 646 740 q 594 470 647 612 q 528 334 565 394 q 447 225 491 273 q 233 111 346 110 q 216 110 227 110 q 159 166 159 110 q 184 202 159 191 q 233 214 209 214 q 280 204 264 214 q 304 195 297 195 q 352 195 325 193 l 414 251 q 229 325 336 325 q 160 312 194 325 q 100 279 126 300 q 57 229 73 258 q 40 169 40 201 q 56 109 40 137 q 98 59 72 80 q 157 26 125 38 q 222 13 190 13 q 454 100 325 13 q 662 291 577 179 q 808 699 808 480 q 746 907 808 819 q 536 1019 671 1019 q 411 953 461 1019 m 495 82 l 588 156 q 730 113 662 113 q 765 122 738 113 q 822 141 793 131 q 878 160 852 151 q 912 169 904 169 q 936 129 936 169 q 917 76 936 100 q 868 35 898 53 q 799 9 837 18 q 722 0 761 0 q 495 82 556 0 "},"j":{"x_min":4.171875,"x_max":2000,"ha":2051,"o":"m 2000 838 l 2000 804 q 1922 590 2000 704 q 1786 480 1823 480 q 1673 440 1777 462 q 1584 433 1643 433 q 1472 456 1543 433 q 1327 550 1415 470 q 1231 708 1261 619 l 1226 708 q 1004 630 1123 630 q 887 684 893 638 l 891 684 l 884 705 l 887 708 l 868 829 l 862 829 l 862 820 l 881 659 l 879 659 q 887 512 884 659 l 881 430 l 879 430 l 881 427 q 838 200 881 362 q 718 -43 812 113 q 680 -94 709 -45 l 668 -102 l 662 -97 q 709 52 686 -50 q 734 280 723 123 l 731 288 l 734 315 l 734 352 l 731 365 l 734 368 l 731 381 q 709 566 731 461 l 705 566 q 388 419 577 419 q 188 480 293 419 q 25 684 70 555 l 8 756 l 11 756 q 4 788 4 769 l 4 801 l 8 833 l 4 836 l 4 838 q 47 986 16 925 q 119 1083 75 1037 q 269 1187 204 1170 q 431 1216 340 1216 q 611 1150 506 1216 l 627 1133 l 654 1227 q 705 1338 675 1288 q 900 1494 783 1451 q 1031 1508 954 1508 l 1038 1508 l 1055 1511 q 1202 1454 1158 1491 q 1370 1219 1318 1377 q 1387 1150 1376 1211 l 1390 1150 q 1486 1202 1390 1168 q 1609 1225 1516 1215 l 1627 1222 l 1630 1225 l 1633 1225 l 1729 1208 l 1783 1184 q 1815 1168 1783 1180 q 1922 1061 1872 1126 q 2000 838 2000 956 m 1616 1034 q 1523 1023 1562 1034 q 1431 930 1444 973 q 1408 815 1408 877 q 1506 644 1408 709 q 1616 616 1558 616 q 1751 679 1681 616 q 1804 836 1804 740 q 1751 968 1790 923 q 1616 1034 1676 1034 m 1047 1312 l 1044 1309 l 1031 1312 q 900 1259 969 1312 l 862 1205 q 833 1037 833 1138 q 891 884 837 966 q 991 836 952 836 l 1009 836 q 1125 887 1054 836 q 1194 1063 1194 961 q 1162 1216 1194 1127 q 1055 1309 1118 1294 l 1047 1312 m 397 1029 l 386 1026 l 373 1029 q 247 938 276 994 q 209 798 209 872 q 255 662 225 690 q 386 593 320 593 l 420 593 q 504 622 481 605 q 590 791 590 695 q 544 951 590 891 q 397 1029 495 1029 m 472 798 l 466 791 l 463 794 l 463 798 l 469 804 l 472 801 l 472 798 "},"¯":{"x_min":-22.21875,"x_max":806.953125,"ha":753,"o":"m 806 1088 l -22 1088 l -22 1178 l 806 1178 l 806 1088 "},"Z":{"x_min":61.109375,"x_max":1275,"ha":1381,"o":"m 76 1750 l 88 1741 l 108 1745 l 181 1741 l 236 1741 l 251 1738 l 266 1741 l 283 1741 l 305 1738 l 322 1741 l 337 1738 l 356 1741 l 376 1738 l 406 1741 l 411 1738 l 415 1741 l 461 1741 l 465 1738 l 469 1741 l 500 1741 l 504 1738 l 508 1741 l 536 1741 l 538 1738 l 543 1741 l 1126 1741 l 1169 1745 l 1173 1741 l 1177 1741 l 1212 1745 l 1255 1745 q 1266 1726 1263 1745 l 1262 1702 l 1266 1668 l 1262 1622 l 1266 1575 l 1262 1570 l 1266 1551 l 1266 1512 q 1236 1493 1255 1493 q 1072 1352 1236 1486 l 912 1209 l 905 1190 q 1018 1038 988 1115 q 1052 894 1044 981 l 1048 879 l 1052 875 l 1052 870 q 940 598 1052 725 q 811 497 901 562 q 737 436 804 497 q 531 280 729 436 q 500 252 519 280 l 500 248 l 516 248 l 536 244 l 558 248 l 577 248 l 594 244 l 605 248 l 609 244 l 613 244 l 616 248 l 620 248 l 663 244 l 691 248 l 694 244 l 698 244 l 702 248 l 722 244 l 819 244 l 834 248 l 854 244 l 881 248 l 893 244 l 897 248 l 901 248 l 905 244 l 908 244 l 920 248 l 925 244 l 927 244 l 940 248 l 944 244 l 963 248 l 998 248 l 1002 244 l 1005 248 l 1150 248 l 1165 244 l 1180 248 l 1262 248 l 1275 241 l 1270 222 l 1270 179 l 1266 27 q 1251 8 1259 9 l 1238 8 l 1236 11 l 1231 8 l 1216 8 l 1212 11 l 1208 8 l 1115 8 l 1111 11 l 1106 8 l 1100 8 l 1083 11 l 1056 8 l 683 8 l 668 4 l 663 8 l 629 4 l 76 0 l 76 38 l 80 43 l 76 47 l 80 66 l 80 147 l 84 190 l 80 194 l 80 198 l 84 222 l 84 248 q 181 319 113 248 q 458 544 279 386 l 458 548 q 322 738 341 645 q 290 863 306 738 l 290 870 l 294 898 l 290 909 q 387 1131 304 1027 q 531 1240 437 1186 q 854 1493 719 1377 l 854 1497 l 834 1501 l 722 1497 l 691 1497 l 655 1493 l 629 1497 l 620 1497 l 620 1493 l 605 1497 l 519 1493 l 519 1497 l 508 1493 l 504 1497 l 484 1493 l 441 1493 l 387 1497 l 337 1493 l 325 1493 l 322 1497 l 318 1493 l 294 1493 l 290 1497 l 286 1493 l 95 1493 l 69 1486 l 61 1505 l 65 1586 l 65 1605 l 69 1609 l 65 1613 l 65 1700 q 76 1750 65 1750 m 644 1275 l 644 1279 l 609 1259 l 616 1259 l 672 1263 q 850 1216 763 1263 l 886 1201 l 886 1213 q 756 1272 831 1251 l 672 1283 l 644 1275 m 551 866 l 555 863 l 555 859 l 551 855 l 551 851 q 675 754 588 754 l 683 754 q 784 827 733 754 l 795 886 q 691 1002 795 976 l 679 1002 q 551 866 565 1002 m 469 525 q 652 462 522 462 q 756 481 695 462 l 756 490 l 752 490 l 718 481 l 713 486 l 668 477 q 480 536 569 477 l 469 525 "},"u":{"x_min":88.890625,"x_max":1731.953125,"ha":1790,"o":"m 1731 861 q 1725 779 1725 837 l 1722 779 l 1725 775 l 1725 772 q 1648 530 1687 586 q 1279 209 1518 309 l 1191 180 q 1055 44 1141 77 l 1045 44 q 929 141 1001 59 l 919 154 l 919 170 l 986 226 q 1029 334 1029 277 q 979 393 1015 393 l 972 393 q 891 288 912 393 l 888 252 l 891 250 l 891 245 l 888 243 q 969 76 888 127 q 1162 11 1019 11 l 1202 11 q 1391 65 1345 38 l 1436 -34 l 1455 -100 q 1312 -165 1455 -113 l 1191 -181 l 1179 -177 l 1158 -177 l 1145 -181 q 908 -118 987 -162 l 836 -69 l 765 0 l 722 76 q 691 175 715 76 l 695 177 l 688 243 q 715 359 701 343 q 829 520 741 451 q 962 579 875 555 q 1095 552 1095 569 q 1158 501 1137 536 q 1219 390 1200 465 l 1236 390 l 1322 438 q 1338 455 1322 447 q 1429 544 1388 497 q 1552 877 1552 712 l 1548 895 l 1552 898 q 1486 1138 1531 1062 q 1388 1269 1451 1205 q 1231 1383 1315 1347 q 1155 1409 1231 1393 q 1095 1511 1123 1481 q 1048 1559 1095 1525 q 986 1595 1033 1580 l 986 1601 q 1036 1615 986 1612 l 1069 1612 l 1095 1615 q 1325 1547 1241 1595 q 1529 1393 1429 1497 q 1641 1226 1615 1304 q 1719 997 1688 1156 q 1729 866 1729 925 l 1731 863 l 1731 861 m 1225 380 l 1222 380 l 1219 363 l 1225 301 q 1212 240 1219 240 l 1212 233 l 1219 226 q 1245 318 1237 226 q 1225 380 1230 380 m 1152 1279 q 1048 1052 1118 1115 q 891 975 958 975 l 855 975 q 698 1052 768 984 q 645 1134 651 1100 l 641 1138 l 636 1138 q 465 1040 556 1118 q 295 615 295 876 q 365 347 295 495 q 531 191 448 238 q 641 134 586 152 l 675 134 l 686 126 l 679 115 q 781 -47 701 27 l 786 -50 l 786 -63 q 748 -73 786 -73 q 381 40 565 -73 q 198 229 272 129 q 162 294 188 237 q 122 393 147 316 l 125 404 q 91 576 108 427 l 95 576 l 91 579 l 91 612 l 88 637 q 145 890 105 801 q 236 1045 204 1008 l 281 1105 q 441 1241 345 1175 q 575 1306 441 1252 q 625 1320 588 1315 q 679 1436 634 1384 q 719 1468 705 1463 l 725 1468 q 888 1373 791 1468 q 862 1340 888 1350 l 836 1291 q 825 1233 825 1259 q 881 1170 833 1170 l 886 1170 q 945 1252 945 1190 l 945 1291 q 795 1468 894 1422 q 702 1494 754 1494 l 698 1491 l 681 1494 l 669 1494 l 655 1491 l 652 1494 l 648 1494 l 636 1491 l 631 1494 l 629 1494 q 488 1458 576 1487 l 481 1451 l 462 1451 q 412 1584 456 1452 l 398 1634 q 681 1690 558 1690 l 702 1690 q 902 1634 830 1675 q 1058 1516 941 1626 q 1152 1279 1152 1387 m 631 1180 l 636 1180 l 622 1252 l 625 1252 l 622 1255 l 625 1295 l 625 1304 l 619 1304 l 619 1306 q 595 1279 595 1298 q 619 1148 595 1219 q 638 1158 636 1148 l 631 1180 m 140 1947 l 1669 1947 l 1669 2123 l 144 2123 l 140 1947 "},"1":{"x_min":103.421875,"x_max":530.453125,"ha":544,"o":"m 125 462 q 103 469 104 462 q 111 487 102 476 q 134 511 120 498 q 156 536 148 525 q 209 602 183 570 q 261 663 236 634 l 261 552 q 233 530 250 544 q 197 502 216 516 q 159 476 177 487 q 125 462 140 465 m 427 837 l 427 697 q 467 717 448 697 q 499 766 486 737 q 522 828 513 796 q 530 885 530 861 q 506 981 530 939 q 434 1024 481 1024 q 367 1001 397 1024 q 316 941 337 978 q 284 859 296 904 q 272 769 272 814 l 272 47 q 308 2 272 8 q 389 -3 344 -3 q 417 27 417 -3 l 417 858 q 430 883 417 883 q 436 869 436 883 q 427 837 436 846 "},"k":{"x_min":94.4375,"x_max":1159.71875,"ha":1296,"o":"m 466 1386 q 579 1342 533 1386 q 625 1236 625 1298 q 579 1132 625 1176 q 466 1088 533 1088 q 355 1132 401 1088 q 309 1236 309 1176 q 355 1342 309 1298 q 466 1386 401 1386 m 436 1041 l 612 1041 l 612 772 l 436 606 q 436 1041 443 1045 m 1025 1112 l 1147 968 l 458 370 q 301 330 368 330 q 180 366 238 330 q 94 531 94 420 q 286 743 94 743 q 345 738 305 743 q 404 733 384 733 l 404 573 q 319 593 351 593 q 255 547 255 593 q 308 493 255 493 q 416 543 355 493 q 1025 1112 462 581 m 436 -13 l 611 -13 l 612 475 q 538 402 576 438 q 434 330 481 352 q 436 155 433 330 q 436 -13 436 70 m 1041 -47 l 1159 68 l 695 544 l 644 511 l 644 352 l 1041 -47 m 409 1019 l 409 744 l 312 744 l 312 1019 l 409 1019 m 419 6 l 405 329 l 326 305 l 326 -6 l 419 6 "},"£":{"x_min":19.65625,"x_max":751.671875,"ha":743,"o":"m 274 561 l 495 561 l 495 458 l 297 458 q 310 396 310 428 q 186 133 310 263 q 286 147 237 147 q 357 139 314 147 q 444 124 400 132 q 525 109 489 116 q 578 102 562 102 q 711 140 632 102 l 751 25 q 583 -17 648 -17 q 522 -7 555 -17 q 450 13 489 2 q 369 34 412 24 q 276 44 325 44 q 66 -19 165 44 l 19 99 q 178 371 178 188 q 175 415 178 394 q 166 458 172 437 l 31 458 l 31 561 l 137 561 q 103 744 103 679 q 208 970 103 890 q 416 1036 297 1036 q 624 966 544 1036 q 724 771 705 896 l 599 752 q 542 880 591 831 q 413 933 490 933 q 288 885 342 933 q 236 763 236 837 q 274 561 236 683 "},"<":{"x_min":77.78125,"x_max":1002.78125,"ha":1011,"o":"m 133 1458 q 400 1213 302 1372 l 409 1177 l 436 1130 l 459 1062 q 525 765 519 912 q 279 586 350 698 q 266 1066 298 904 l 265 1098 l 247 1169 l 240 1216 q 133 1458 229 1291 m 625 743 q 888 636 779 743 q 998 380 998 530 q 888 124 998 230 q 625 18 779 18 q 359 124 469 18 q 250 380 250 230 q 359 636 250 530 q 625 743 469 743 m 625 556 q 495 507 547 556 q 443 380 443 458 q 492 252 443 300 q 625 205 541 205 q 752 254 700 205 q 805 380 805 302 q 754 509 805 462 q 625 556 704 556 m 77 1579 l 1002 1579 l 1002 1755 l 77 1755 l 77 1579 "},"¬":{"x_min":-2.78125,"x_max":1340.28125,"ha":1390,"o":"m 1340 244 l 1340 -359 l 1166 -359 l 1165 76 l 668 76 l 668 244 l 1340 244 m 669 244 l 669 76 l 158 76 l 158 -361 l -2 -361 l -2 244 l 669 244 "},"t":{"x_min":25,"x_max":1037.5,"ha":1129,"o":"m 1033 750 l 1037 1461 l 25 1461 l 25 754 l 226 751 l 229 1222 l 413 1222 l 413 -1 l 648 -1 l 648 1222 l 833 1222 l 838 751 l 1033 750 "},"¢":{"x_min":75,"x_max":718.0625,"ha":739,"o":"m 516 621 l 362 89 q 405 84 383 84 q 536 139 484 84 q 594 270 581 189 l 718 256 q 681 145 706 195 q 613 58 655 96 q 406 -19 529 -19 q 336 -9 370 -19 l 252 -282 l 175 -260 l 255 14 q 113 161 161 60 q 75 365 75 249 q 236 711 75 622 q 401 756 318 756 q 431 754 413 756 q 470 750 448 753 l 550 1018 l 625 996 l 547 728 q 705 521 676 672 l 583 503 q 516 621 565 579 m 289 122 l 443 653 q 423 655 432 654 q 408 656 414 656 q 228 525 276 656 q 203 372 203 458 q 289 122 203 186 "},"W":{"x_min":97.21875,"x_max":1094.453125,"ha":1207,"o":"m 1023 2120 q 1087 1836 1069 1990 l 1090 1822 l 1090 1819 l 1088 1818 q 1094 1704 1094 1781 q 1045 1461 1088 1544 q 986 1361 1045 1441 q 895 1288 948 1318 q 765 1256 825 1255 l 762 1255 l 761 1255 q 659 1276 690 1261 q 645 1281 659 1279 l 645 1279 q 716 1180 705 1216 q 754 1009 736 1136 l 751 937 q 704 798 733 829 q 640 737 686 765 q 590 730 615 730 q 475 819 512 733 q 450 891 455 865 q 438 984 445 891 l 438 986 l 441 1006 l 441 1022 l 444 1023 l 443 1026 q 477 1169 455 1133 q 511 1212 500 1212 l 512 1212 l 563 1168 q 579 1138 579 1148 q 544 1033 569 1140 l 541 1002 l 543 968 l 540 969 q 565 879 551 880 q 590 865 575 865 l 593 865 q 627 893 616 863 q 641 951 636 906 l 640 963 l 643 979 q 618 1127 644 1031 q 552 1202 580 1193 q 473 1238 516 1237 l 451 1244 q 362 1216 387 1237 q 319 1181 336 1200 l 318 1184 l 315 1184 q 286 1131 315 1177 q 231 956 262 1094 l 233 955 l 226 868 q 268 545 220 715 q 229 411 254 545 q 216 295 219 351 l 216 279 l 213 277 l 216 275 l 213 213 l 215 200 l 213 200 q 259 -2 226 104 q 320 -113 287 -72 q 370 -151 359 -150 q 415 -166 395 -163 q 470 -152 434 -168 l 487 -150 q 556 -229 500 -179 l 556 -236 q 473 -275 543 -254 l 433 -279 q 300 -243 352 -276 q 256 -211 290 -243 q 195 -143 251 -211 q 118 56 127 -19 q 97 208 105 84 l 100 287 l 102 295 l 101 297 l 101 300 l 115 420 l 113 423 l 113 425 q 143 545 123 480 q 111 818 108 762 l 106 887 l 109 887 l 106 890 l 108 897 l 109 900 l 108 901 l 108 904 l 109 909 l 108 915 q 198 1208 113 1070 q 334 1336 251 1291 q 412 1363 381 1358 l 412 1365 q 370 1373 391 1366 q 333 1355 365 1366 q 318 1348 333 1350 q 293 1333 318 1341 q 279 1318 293 1329 l 276 1308 l 270 1308 q 223 1341 238 1322 q 140 1484 155 1420 q 102 1662 102 1594 q 98 1786 94 1662 q 147 2075 102 1904 l 159 2106 l 216 2086 q 275 2068 275 2072 l 275 2062 l 272 2061 l 275 2058 l 273 2056 q 261 2038 262 2051 q 215 1865 244 2008 l 218 1862 l 209 1756 q 237 1565 206 1663 l 245 1534 q 298 1447 272 1480 q 393 1377 315 1411 q 422 1365 409 1377 l 431 1362 q 480 1366 441 1366 l 530 1356 l 530 1359 q 463 1483 463 1462 q 443 1552 459 1483 q 436 1593 443 1565 l 437 1626 l 436 1640 l 437 1640 l 436 1643 l 436 1658 l 434 1669 q 469 1800 445 1755 q 594 1895 522 1898 q 679 1858 654 1884 q 741 1734 722 1816 q 747 1723 744 1734 l 744 1722 l 744 1719 q 756 1591 755 1691 l 755 1579 q 706 1391 752 1488 l 702 1391 q 619 1466 663 1418 l 618 1466 l 618 1470 q 641 1587 631 1513 l 640 1593 l 643 1611 l 636 1694 q 590 1770 618 1770 l 584 1772 q 543 1655 554 1763 l 544 1647 l 544 1643 l 541 1641 l 551 1562 q 616 1430 565 1494 q 752 1363 683 1366 q 891 1437 818 1361 q 956 1566 943 1495 q 977 1645 968 1583 l 976 1648 l 976 1650 l 979 1677 l 977 1686 l 979 1686 l 977 1687 l 979 1722 q 916 2059 984 1894 l 912 2063 l 913 2076 q 950 2088 913 2080 q 1023 2120 1005 2120 m 909 1286 l 913 1286 q 1022 1140 984 1216 q 1075 990 1059 1080 l 1088 893 l 1086 893 l 1087 891 l 1087 887 q 1090 825 1086 836 l 1087 823 l 1087 822 l 1088 815 l 1087 813 l 1088 805 q 1076 665 1084 694 l 1077 663 l 1077 662 l 1054 552 l 1072 380 l 1076 279 l 1075 279 l 1076 273 l 1077 211 l 1076 209 l 1076 206 l 1077 195 l 1073 150 l 1076 143 q 1041 -26 1075 102 q 965 -166 1004 -122 q 708 -284 868 -290 q 580 -225 616 -262 q 477 -87 504 -165 q 438 127 434 13 l 437 130 l 438 136 l 437 137 l 437 140 l 438 141 l 437 150 q 495 309 440 226 q 513 333 500 309 q 595 366 550 368 q 686 319 640 365 l 712 284 q 751 93 755 194 l 751 84 l 752 72 q 738 -5 744 4 l 740 -8 l 740 -9 q 684 -126 713 -109 q 676 -133 681 -134 q 616 -69 641 -119 q 606 -50 606 -55 l 606 -47 q 645 94 644 45 q 620 227 648 158 l 601 245 q 566 225 566 247 q 547 131 554 215 q 565 1 545 80 q 626 -112 598 -88 q 719 -168 654 -148 q 848 -122 805 -170 q 886 -83 862 -115 l 911 -40 q 950 95 948 48 l 952 95 l 950 98 l 958 165 l 961 225 l 962 227 l 961 229 l 961 240 q 926 547 965 365 l 926 548 q 937 586 931 552 q 973 838 968 676 q 950 1020 976 908 q 884 1147 900 1143 l 884 1148 l 887 1151 l 887 1152 q 868 1175 883 1152 l 823 1215 q 805 1229 816 1216 q 791 1237 794 1230 q 840 1245 794 1241 q 913 1277 900 1266 l 909 1284 l 909 1286 "},"v":{"x_min":18.0625,"x_max":1186.109375,"ha":1272,"o":"m 25 1634 l 30 1634 q 37 1615 36 1634 q 277 1427 98 1497 l 400 1369 q 473 1327 401 1365 l 533 1284 l 537 1272 l 536 1184 l 537 1072 l 536 1069 l 533 1069 q 398 1237 477 1168 q 225 1355 337 1290 l 148 1415 q 18 1619 18 1543 q 25 1634 20 1634 m 627 1519 q 740 1434 709 1519 l 748 1402 q 683 1294 748 1333 q 637 1280 658 1280 l 615 1280 q 515 1356 550 1280 l 511 1375 l 512 1377 l 512 1380 l 508 1394 q 590 1512 508 1473 l 627 1519 m 1077 1344 l 1080 1344 q 1180 1234 1087 1343 l 1180 1231 l 750 844 q 702 794 702 806 l 702 756 l 705 702 l 702 702 l 705 700 l 705 693 l 702 693 l 705 662 l 705 600 l 708 587 l 705 587 l 708 584 l 708 568 l 705 556 l 708 540 l 708 455 l 711 377 l 708 375 l 708 372 l 711 365 l 708 362 l 711 350 q 700 309 708 309 l 662 309 l 652 306 l 643 309 l 637 309 l 627 306 l 625 309 l 612 306 l 562 306 q 558 315 558 306 l 568 331 l 565 331 l 552 330 l 548 337 l 548 369 l 545 384 l 548 394 l 548 400 l 545 400 l 548 418 l 548 444 l 550 468 l 548 493 l 548 518 l 543 522 q 537 509 543 509 l 540 493 l 540 437 l 543 405 l 540 377 l 540 365 l 543 352 q 512 293 538 293 q 368 215 484 266 q 248 162 323 193 q 150 105 227 147 q 105 75 144 97 l 70 40 l 40 0 l 37 0 l 30 6 q 100 130 44 59 q 193 205 154 184 q 308 280 266 259 q 348 309 308 284 q 455 409 386 337 q 515 500 493 445 q 548 612 548 561 l 548 625 l 545 640 l 548 647 l 545 655 q 636 715 591 673 q 655 744 655 730 l 662 744 l 677 737 l 670 762 l 677 769 l 673 775 l 558 669 l 548 672 q 470 630 491 630 q 398 618 445 618 l 398 619 l 395 618 l 393 618 q 255 650 309 618 q 193 737 202 700 q 186 756 193 747 l 186 802 q 287 955 186 888 q 365 977 345 975 l 368 975 l 380 977 l 390 977 q 512 947 456 977 q 525 927 525 938 l 502 859 q 465 806 484 825 q 452 812 452 806 l 450 809 l 402 815 l 395 815 q 355 797 355 805 l 352 781 q 405 762 369 762 q 445 772 427 772 q 530 884 476 772 q 545 975 543 940 l 540 1022 q 545 1047 545 1022 l 548 1047 l 545 1050 l 545 1055 l 548 1056 l 545 1059 l 545 1065 l 548 1065 l 545 1090 l 545 1112 l 548 1122 l 545 1125 l 548 1193 l 548 1234 q 555 1262 548 1262 q 643 1147 619 1209 q 683 1015 683 1076 q 640 962 683 995 q 533 862 587 908 q 518 827 520 843 q 683 980 556 858 l 986 1262 l 1077 1344 m 608 1250 l 670 1250 q 700 1231 700 1250 l 700 1150 l 698 1147 l 700 1144 l 700 1069 l 702 1055 l 700 1044 l 702 1031 q 695 1019 700 1019 l 690 1027 l 690 1075 q 636 1209 680 1140 l 608 1243 l 608 1250 m 702 944 l 702 868 l 705 843 l 708 843 q 720 859 713 843 l 718 897 l 718 940 l 715 952 q 702 944 702 948 m 686 852 q 637 765 675 822 l 636 756 l 640 756 l 655 775 l 690 844 l 690 850 l 687 852 l 686 852 m 725 800 q 783 755 741 800 q 1080 481 873 666 q 1186 381 1186 387 l 1186 380 l 1087 280 l 1086 277 l 1083 277 l 720 615 l 723 640 l 723 652 l 720 702 l 723 712 l 720 737 l 720 743 l 723 755 l 720 769 l 720 794 l 725 800 m 677 727 l 683 715 l 686 715 l 686 722 l 683 730 l 680 727 l 677 727 m 570 334 l 575 334 q 652 443 634 388 q 690 555 669 456 l 693 594 l 693 600 q 677 550 690 600 q 593 380 638 426 l 570 334 "},">":{"x_min":26.390625,"x_max":891.671875,"ha":933,"o":"m 26 1458 q 293 1213 195 1372 l 302 1177 l 329 1130 l 352 1062 q 418 765 412 912 q 172 586 243 698 q 159 1066 191 904 l 158 1098 l 140 1169 l 133 1216 q 26 1458 122 1291 m 518 743 q 781 636 672 743 q 891 380 891 530 q 781 124 891 230 q 518 18 672 18 q 252 124 362 18 q 143 380 143 230 q 252 636 143 530 q 518 743 362 743 m 518 556 q 388 507 440 556 q 336 380 336 458 q 385 252 336 300 q 518 205 434 205 q 645 254 593 205 q 698 380 698 302 q 647 509 698 462 q 518 556 597 556 "},"s":{"x_min":44.4375,"x_max":1169.453125,"ha":1319,"o":"m 476 1076 l 476 259 l 270 259 l 270 743 l 45 738 l 44 -5 l 1169 -5 l 1169 738 l 943 738 l 943 259 l 737 259 l 737 1619 l 476 1619 l 476 1293 l 312 1293 l 312 1076 l 476 1076 m 738 1293 l 900 1293 l 900 1079 l 738 1079 l 738 1293 "},"B":{"x_min":23.609375,"x_max":2348.609375,"ha":2429,"o":"m 2348 894 l 2348 859 q 2225 509 2348 687 q 2015 369 2084 383 q 1851 343 1968 343 l 1758 362 l 1680 405 l 1668 405 q 1531 144 1652 279 q 1218 8 1383 8 l 1159 8 q 844 140 1005 8 q 708 401 726 270 l 700 401 q 494 347 604 347 q 209 447 351 347 q 34 731 84 551 l 23 833 l 23 844 q 93 1125 23 1002 q 116 1163 100 1125 q 187 1237 123 1163 q 323 1322 266 1305 q 479 1365 370 1345 q 695 1315 623 1365 q 793 1552 720 1473 q 909 1656 856 1633 q 1104 1738 943 1701 l 1159 1747 l 1213 1743 l 1240 1747 q 1458 1656 1354 1731 q 1622 1451 1622 1508 q 1668 1302 1668 1369 l 1672 1300 l 1676 1300 q 1909 1354 1762 1354 l 1920 1354 q 2095 1291 1993 1354 q 2313 1027 2227 1227 q 2348 894 2330 1000 m 1890 1120 l 1881 1120 q 1661 995 1730 1120 q 1629 855 1629 918 q 1680 697 1651 697 q 1773 602 1680 673 l 1870 576 l 1890 580 l 1894 576 l 1898 576 q 2030 638 1951 587 q 2095 797 2095 726 l 2104 820 l 2100 825 l 2104 852 q 1983 1093 2104 1013 q 1890 1120 1934 1112 m 1166 751 q 995 650 1086 751 q 941 502 941 584 l 941 483 q 1006 308 941 377 q 1104 237 1063 237 q 1181 218 1104 227 q 1318 269 1250 218 q 1427 479 1427 368 l 1427 502 q 1369 654 1419 580 q 1166 751 1290 751 m 1201 1501 q 972 1354 1022 1501 q 948 1244 956 1325 q 991 1093 948 1179 q 1104 991 1031 1034 l 1179 976 q 1400 1136 1340 976 q 1415 1248 1415 1200 q 1350 1427 1397 1377 q 1220 1497 1268 1497 l 1201 1501 m 518 1108 q 319 995 381 1108 q 268 825 268 926 l 268 813 q 401 615 268 695 q 486 587 452 587 l 490 591 l 494 591 l 498 587 l 501 587 l 505 591 l 525 587 q 695 700 654 630 q 747 902 747 781 q 641 1073 702 1040 q 518 1108 591 1101 m 509 855 l 509 844 l 501 852 l 505 855 l 509 855 "},"?":{"x_min":-98.609375,"x_max":1013.890625,"ha":1061,"o":"m 234 1398 q 454 1398 348 1401 l 509 1394 l 519 1152 l 512 1040 q 516 740 516 880 q 280 519 365 673 q 281 1041 277 879 l 283 1226 l -98 1225 l -98 1394 q 234 1398 102 1391 m 640 737 q 904 631 794 737 q 1013 375 1013 525 q 904 118 1013 225 q 640 12 794 12 q 375 118 484 12 q 265 375 265 225 q 375 631 265 525 q 640 737 484 737 m 640 551 q 510 502 562 551 q 458 375 458 452 q 507 247 458 294 q 640 200 556 200 q 768 248 715 200 q 820 375 820 297 q 770 504 820 456 q 640 551 719 551 m -66 1540 l 951 1540 l 951 1704 l -75 1704 l -66 1540 "},"H":{"x_min":20.828125,"x_max":979.171875,"ha":1058,"o":"m 181 0 l 20 0 l 20 1466 l 181 1466 l 181 863 l 818 863 l 818 1466 l 979 1466 l 979 0 l 818 0 l 818 691 l 181 691 l 181 0 "},"c":{"x_min":23.609375,"x_max":1123.609375,"ha":1210,"o":"m 156 1486 l 163 1486 q 780 729 551 1023 q 916 365 916 579 q 823 136 916 261 l 737 69 q 620 41 683 41 l 606 38 q 416 108 505 47 q 273 341 313 184 l 266 402 l 273 498 l 270 502 l 270 505 q 326 679 286 595 q 433 808 337 713 l 459 815 l 463 815 q 487 565 483 815 q 463 441 463 502 q 487 325 463 393 l 497 269 l 497 245 l 493 241 l 497 238 l 493 222 l 493 129 l 643 131 l 647 131 l 659 136 l 676 131 q 704 145 704 131 l 706 155 l 700 288 q 730 405 730 330 q 643 608 704 540 q 626 638 636 608 l 520 758 l 520 755 q 666 545 556 688 q 687 522 666 538 l 687 515 l 683 505 l 687 488 l 687 402 l 690 345 l 687 345 l 690 341 l 690 336 l 687 336 l 690 252 l 690 198 l 687 169 l 693 145 l 690 141 l 600 141 l 550 138 l 550 141 l 540 138 q 513 148 513 141 l 506 412 l 509 425 l 506 438 l 509 441 l 506 458 q 497 762 506 613 l 506 765 l 506 775 l 204 1152 l 66 1312 q 23 1372 33 1348 l 23 1381 q 156 1486 51 1397 m 547 1436 l 550 1431 l 554 1431 l 600 1436 l 604 1436 l 606 1431 l 609 1436 l 656 1436 q 670 1405 670 1430 l 670 1381 l 673 1225 l 670 1225 l 673 1222 l 673 1186 l 680 945 l 680 925 l 687 919 l 747 929 l 759 925 l 790 929 l 816 929 q 990 872 922 908 q 1123 765 1058 838 l 1123 738 q 1106 725 1116 725 q 1056 752 1088 725 q 930 779 979 779 l 916 775 l 913 779 l 909 775 l 890 775 q 833 758 861 775 l 823 762 q 797 752 823 754 q 709 865 777 788 q 663 922 669 922 q 606 995 663 938 l 500 1131 q 487 1272 487 1140 l 487 1281 l 483 1312 l 487 1315 l 483 1338 l 483 1362 l 480 1429 l 483 1431 l 533 1431 l 547 1436 m 590 5 q 730 -106 702 5 l 730 -144 q 656 -247 730 -200 q 600 -261 626 -261 q 476 -183 513 -261 q 463 -127 463 -150 l 463 -120 q 547 -4 463 -47 q 590 5 590 1 "},"&":{"x_min":58.328125,"x_max":1145.828125,"ha":1236,"o":"m 641 590 l 641 944 l 556 944 l 556 590 l 641 590 m 415 713 l 777 713 l 777 795 l 415 795 l 415 713 m 954 931 q 416 225 656 538 q 352 27 352 140 q 401 -137 352 -79 q 486 -183 423 -163 q 615 -202 550 -202 q 731 -173 693 -202 q 830 37 830 -101 q 723 322 830 184 l 623 186 q 683 68 680 95 q 660 -33 691 -2 q 595 -63 629 -63 q 531 -29 561 -63 q 508 41 508 11 q 540 122 508 77 q 1130 945 773 445 q 1125 950 1125 952 q 954 931 959 931 m 577 479 q 243 948 356 783 q 61 936 58 943 q 300 595 206 719 q 479 352 481 354 l 577 479 m 556 1302 l 556 948 l 641 948 l 641 1302 l 556 1302 m 415 1097 l 777 1097 l 777 1179 l 415 1179 l 415 1097 m 963 938 q 1025 934 959 931 q 1145 952 1131 937 q 540 1770 773 1447 q 508 1851 508 1815 q 531 1922 508 1881 q 595 1956 561 1956 q 660 1926 629 1956 q 683 1825 691 1895 q 623 1706 680 1797 l 723 1570 q 830 1855 830 1708 q 731 2066 830 1994 q 615 2095 693 2095 q 486 2076 550 2095 q 401 2030 423 2056 q 352 1865 352 1972 q 416 1668 352 1752 q 963 938 656 1354 m 577 1413 l 479 1540 q 300 1297 481 1538 q 58 934 206 1173 q 243 948 109 947 q 577 1413 356 1109 "},"I":{"x_min":77.78125,"x_max":490.28125,"ha":583,"o":"m 426 2 l 141 2 l 141 1275 l 426 1275 l 426 2 m 275 1772 q 416 1713 358 1772 q 475 1575 475 1655 q 416 1437 475 1494 q 275 1380 358 1380 q 136 1437 194 1380 q 77 1575 77 1494 q 135 1713 77 1655 q 275 1772 193 1772 m 275 1723 q 174 1682 215 1723 q 133 1581 133 1641 q 174 1481 133 1523 q 275 1438 215 1438 q 377 1481 336 1438 q 419 1581 419 1523 q 377 1682 419 1641 q 275 1723 336 1723 m 86 1968 l 490 1968 l 490 2154 l 79 2154 l 86 1968 "},"¥":{"x_min":-2.34375,"x_max":786.546875,"ha":788,"o":"m 456 0 l 331 0 l 331 225 l 43 225 l 43 322 l 331 322 l 331 422 l 43 422 l 43 525 l 281 525 l -2 1018 l 136 1018 l 339 659 q 368 603 356 630 q 392 552 381 576 q 414 601 400 572 q 447 666 428 630 l 639 1018 l 786 1018 l 506 525 l 742 525 l 742 422 l 456 422 l 456 322 l 742 322 l 742 225 l 456 225 l 456 0 "},"G":{"x_min":84.71875,"x_max":1200,"ha":1175,"o":"m 156 1673 q 188 1662 170 1662 l 200 1666 l 200 1662 l 211 1666 l 213 1662 l 231 1666 l 236 1666 l 258 1662 l 261 1666 l 286 1662 l 369 1662 l 380 1659 l 398 1662 l 500 1662 l 556 1659 l 561 1662 l 633 1659 l 969 1659 l 983 1662 l 998 1659 l 1016 1659 l 1026 1662 l 1044 1659 l 1070 1659 l 1125 1662 l 1134 1637 l 1131 1616 l 1131 1608 l 1134 1608 l 1131 1583 l 1131 1540 l 1134 1504 l 1131 1472 l 1131 1450 l 1125 1443 l 969 1443 l 954 1438 l 951 1443 l 947 1443 l 922 1438 l 881 1443 l 861 1438 l 850 1443 l 836 1438 l 831 1443 l 827 1443 l 825 1438 l 820 1438 l 818 1443 l 800 1438 l 795 1438 l 759 1443 l 727 1438 l 723 1443 l 719 1443 l 716 1438 l 712 1438 l 701 1443 l 691 1438 l 673 1443 l 669 1438 l 665 1438 l 644 1443 l 633 1443 l 611 1438 l 608 1443 l 583 1438 l 556 1438 l 525 1443 l 520 1438 l 518 1438 l 506 1443 l 500 1443 l 500 1438 l 475 1443 l 409 1443 l 405 1431 l 402 1193 l 402 1059 q 322 987 344 1018 q 290 948 304 975 l 294 944 l 297 944 q 531 1100 418 1068 q 647 1120 565 1111 l 698 1120 l 712 1118 l 716 1120 l 719 1120 q 911 1063 911 1090 q 1186 705 1091 976 l 1188 680 l 1186 669 q 1200 540 1197 669 q 1143 298 1200 444 l 1091 215 q 972 120 1009 120 q 813 27 972 88 q 680 5 716 5 l 665 9 l 662 5 q 441 55 577 5 q 268 204 309 138 q 211 323 238 222 q 152 561 170 387 l 156 561 l 152 565 l 152 633 l 150 659 l 152 691 l 152 872 l 150 886 l 152 901 l 152 933 l 150 951 l 152 951 l 150 955 l 150 958 l 152 962 l 150 987 l 150 1059 l 152 1063 l 150 1066 l 150 1081 l 152 1084 l 150 1095 l 152 1111 l 150 1143 l 150 1154 l 152 1156 l 150 1161 l 150 1219 l 152 1222 l 150 1226 l 150 1493 l 145 1508 l 150 1522 l 145 1626 l 150 1644 l 145 1655 q 156 1673 150 1673 m 272 926 l 272 922 l 276 922 l 286 933 l 286 937 l 283 937 l 272 926 m 247 890 l 254 890 q 265 901 254 901 l 268 904 l 268 908 l 265 912 l 265 915 q 247 890 247 909 m 412 572 l 412 547 q 423 504 420 540 q 531 323 451 402 l 601 290 l 683 280 l 712 280 q 843 348 772 280 q 940 558 940 455 q 900 723 940 619 q 791 836 887 758 q 680 865 715 865 l 673 865 q 543 822 586 852 q 412 572 412 731 m 84 1811 l 1170 1811 l 1170 1998 l 84 1998 l 84 1811 "},"(":{"x_min":86.109375,"x_max":540.28125,"ha":564,"o":"m 540 -323 l 420 -323 q 86 912 86 251 q 420 2143 86 1537 l 540 2143 q 445 1914 483 2009 q 390 1761 408 1819 q 258 909 258 1351 q 540 -323 258 291 "},"`":{"x_min":61.109375,"x_max":1041.671875,"ha":1115,"o":"m 488 2006 q 563 1981 523 2006 q 611 1887 611 1943 l 611 1869 q 479 1765 584 1765 q 373 1859 408 1765 l 370 1880 l 370 1900 q 401 1965 376 1934 q 488 2006 443 2006 m 476 1744 l 483 1743 l 523 1744 l 554 1744 l 573 1740 l 570 1731 l 573 1725 l 570 1681 l 570 1612 l 573 1597 l 570 1590 l 573 1568 l 570 1568 l 573 1565 l 573 1555 l 570 1552 l 573 1550 l 573 1534 l 570 1531 l 573 1525 l 576 1037 l 573 1018 l 576 1015 l 576 1012 l 573 1002 l 576 990 l 573 987 l 573 984 l 576 969 l 573 956 l 573 952 l 576 952 l 573 927 l 573 780 l 570 777 l 573 775 l 573 772 l 568 747 l 570 737 q 416 597 458 645 l 411 597 l 408 600 l 405 600 l 413 943 l 411 944 l 411 947 l 413 956 l 413 959 l 411 975 l 413 984 l 413 990 l 411 990 l 413 1006 l 413 1059 l 411 1069 l 413 1087 l 413 1381 l 411 1405 l 413 1412 l 411 1430 l 413 1440 l 411 1443 l 411 1450 l 413 1450 l 411 1475 l 411 1593 l 408 1602 l 411 1615 l 408 1652 l 411 1652 l 408 1655 l 408 1737 l 413 1743 l 438 1743 l 476 1744 m 941 1068 l 943 1068 l 1033 965 l 1033 959 q 768 697 943 856 l 538 490 q 276 340 368 340 l 233 337 q 105 402 180 337 q 61 505 61 468 l 61 543 q 98 643 61 579 l 136 677 q 305 731 202 731 q 393 700 376 718 l 393 659 l 391 650 l 393 647 l 391 634 l 393 622 l 388 600 l 393 587 q 355 562 368 562 q 304 584 352 572 q 236 543 236 575 l 236 527 q 280 502 250 502 q 441 602 341 502 q 916 1047 666 808 l 941 1068 m 598 527 q 801 331 608 527 l 879 256 l 1041 100 l 936 0 q 904 25 919 0 q 616 315 706 218 l 576 350 l 576 352 l 579 362 l 576 380 l 576 405 l 579 419 l 576 430 l 579 440 l 576 447 l 579 481 l 579 494 l 576 505 q 598 527 576 513 m 558 484 l 561 484 q 566 465 566 484 l 568 465 l 566 447 l 566 355 l 563 352 l 566 350 l 566 334 l 563 331 l 566 330 l 563 312 l 563 168 l 561 156 l 563 155 l 561 137 l 561 80 q 543 43 559 43 l 498 44 l 495 43 l 483 44 l 405 47 q 401 105 401 59 l 401 159 l 404 162 l 401 165 l 404 172 l 401 181 l 404 219 l 404 347 q 441 384 404 370 q 558 484 506 427 "},"U":{"x_min":111.109375,"x_max":819.5,"ha":953,"o":"m 741 298 l 741 452 l 356 452 l 356 298 l 741 298 m 126 -347 q 301 -291 154 -350 q 636 -77 506 -209 q 819 370 818 108 q 637 877 822 669 q 295 1115 508 1025 q 111 1179 112 1193 q 606 437 606 798 q 602 366 606 402 q 512 13 572 140 q 359 -177 461 -94 q 126 -347 354 -181 "},"F":{"x_min":125,"x_max":1112.5,"ha":1222,"o":"m 319 -4 l 125 -4 l 125 1462 l 1112 1462 l 1112 1287 l 319 1287 l 319 836 l 320 836 l 320 650 l 319 662 l 319 -4 m 720 1094 l 720 1637 l 894 1637 l 894 1094 l 720 1094 "},"r":{"x_min":219.4375,"x_max":1129.171875,"ha":1208,"o":"m 263 1456 q 530 1212 433 1370 l 704 1212 l 704 1061 l 590 1061 q 655 763 650 911 q 409 584 480 697 q 397 1065 429 902 l 219 1065 l 219 1215 l 370 1215 q 263 1456 359 1290 m 755 741 q 1019 635 909 741 q 1129 379 1129 529 q 1019 122 1129 229 q 755 16 909 16 q 490 122 600 16 q 380 379 380 229 q 490 635 380 529 q 755 741 600 741 m 755 555 q 625 506 677 555 q 573 379 573 456 q 622 251 573 298 q 755 204 672 204 q 883 252 830 204 q 936 379 936 301 q 885 508 936 461 q 755 555 834 555 m 969 1577 l 969 1577 q 1095 1500 1048 1577 l 1108 1443 q 1081 1356 1108 1406 q 1038 1312 1056 1322 q 1006 1287 1038 1305 q 951 1262 958 1262 l 945 1262 q 929 1305 929 1280 q 1056 1443 1056 1368 q 956 1522 1041 1522 q 837 1472 888 1505 l 831 1468 q 801 1502 825 1468 q 969 1577 884 1577 "},":":{"x_min":94.4375,"x_max":1536.484375,"ha":1594,"o":"m 1422 1118 q 1450 1056 1422 1123 q 1504 895 1481 977 q 1536 662 1534 777 q 1422 231 1543 429 q 1031 0 1276 -1 q 750 115 868 1 q 611 334 661 198 q 576 486 572 436 q 636 712 583 623 q 845 831 706 831 q 1059 723 983 831 q 1129 490 1126 629 q 1093 319 1130 386 q 1008 227 1069 277 q 911 265 927 250 q 851 323 887 286 q 958 491 958 405 q 937 601 958 552 q 859 665 909 665 q 745 484 755 665 q 809 306 740 400 q 1027 194 893 194 q 1251 376 1162 194 q 1322 652 1323 523 q 1261 927 1319 786 q 1205 1043 1213 1043 l 1422 1118 m 791 51 q 743 90 788 50 q 701 123 722 106 q 644 206 680 155 q 622 194 633 200 q 584 190 605 184 q 465 265 518 204 q 370 570 375 369 q 451 868 368 680 q 534 1036 522 1036 l 338 1129 q 236 915 255 963 q 169 554 169 740 q 273 175 169 329 q 558 4 381 13 q 791 51 726 -4 m 104 1312 l 1523 1312 l 1523 1493 l 94 1493 l 104 1312 "},"x":{"x_min":59.71875,"x_max":987.5,"ha":1079,"o":"m 584 1368 q 881 1237 768 1368 q 943 1156 894 1234 q 987 973 987 1047 l 984 970 l 984 968 l 987 965 l 984 945 l 984 940 l 987 920 l 984 920 l 987 918 q 954 765 987 868 q 829 595 925 691 q 626 523 726 523 l 584 523 q 495 554 495 541 q 481 562 481 558 l 481 579 q 431 859 470 679 l 429 895 l 431 898 l 437 898 q 448 848 444 898 q 501 762 468 780 q 606 723 547 723 q 756 837 695 723 q 776 937 776 898 l 776 948 q 648 1137 776 1084 l 593 1145 q 456 1054 513 1145 q 423 881 423 983 l 426 879 l 426 876 l 423 873 l 429 812 l 426 812 l 429 809 l 429 804 l 465 545 l 476 381 l 476 276 l 473 248 l 520 245 l 615 245 l 618 243 l 620 245 l 631 245 l 634 243 l 643 245 l 687 243 l 698 245 l 701 243 l 701 240 l 698 231 l 701 218 l 698 204 l 701 173 l 701 143 l 698 101 l 687 101 l 679 106 l 668 104 l 648 106 l 579 106 l 562 109 l 559 106 l 531 109 l 473 109 l 459 112 q 443 45 454 109 q 315 -226 419 -68 q 215 -337 268 -297 l 206 -337 l 201 -331 q 279 -137 254 -226 q 306 79 306 11 l 306 112 l 251 112 l 234 115 l 231 112 l 184 115 l 134 115 l 118 118 l 115 115 l 101 118 l 81 118 l 70 109 l 68 109 q 59 131 59 111 l 59 245 l 65 251 l 120 251 l 187 248 l 190 251 l 204 248 l 273 248 l 301 251 l 301 270 q 273 493 293 409 q 212 840 212 801 l 209 881 l 209 945 q 251 1143 220 1065 q 326 1256 286 1204 q 359 1284 331 1256 q 540 1362 461 1352 q 584 1368 569 1362 "},"*":{"x_min":58.328125,"x_max":923.609375,"ha":1028,"o":"m 140 1538 l 215 1536 l 220 1536 l 236 1534 l 238 1536 l 263 1534 l 333 1534 l 365 1531 l 393 1534 l 402 1531 l 405 1534 l 448 1531 l 493 1531 l 495 1529 l 498 1531 l 523 1529 l 643 1529 l 645 1526 l 648 1529 l 698 1523 l 718 1526 l 865 1523 l 913 1523 q 920 1511 919 1523 l 923 1391 q 786 1211 920 1381 q 577 973 704 1108 q 452 859 536 920 q 313 809 368 822 l 288 809 l 276 806 q 127 841 191 806 q 58 944 83 877 l 58 994 q 115 1111 58 1048 q 255 1173 166 1156 l 295 1179 l 298 1179 q 383 1161 356 1173 l 386 1159 l 386 1131 l 383 1122 l 386 1111 l 386 1101 l 383 1088 l 386 1073 l 386 1034 q 373 1016 386 1016 q 298 1036 329 1036 l 288 1034 l 286 1036 l 283 1036 q 202 997 202 1025 l 201 984 l 201 981 q 265 938 201 952 q 411 1001 323 938 q 568 1161 456 1027 l 748 1379 q 726 1384 748 1384 l 726 1386 l 718 1384 l 645 1386 l 623 1386 l 620 1388 l 618 1386 l 605 1388 l 340 1391 l 340 1394 l 338 1391 l 320 1394 l 263 1394 l 148 1397 l 140 1394 q 130 1401 130 1398 l 136 1434 l 133 1436 l 136 1448 l 136 1513 l 133 1531 l 140 1538 m 413 1273 l 438 1273 l 440 1272 l 443 1273 l 455 1272 l 486 1272 q 515 1254 515 1272 l 515 1251 q 508 1129 508 1202 l 505 1119 l 511 1098 q 438 1036 494 1090 l 411 1013 l 405 1013 l 398 1026 l 401 1054 l 401 1059 l 398 1059 l 401 1076 l 401 1141 l 402 1163 l 401 1166 l 401 1169 l 402 1204 l 402 1231 l 405 1254 l 402 1256 l 402 1259 q 413 1273 408 1273 m 645 1019 l 651 1019 q 715 954 672 1009 q 788 822 738 937 q 805 706 805 741 l 805 659 q 720 419 805 563 q 580 238 631 297 q 488 72 488 102 q 443 -147 459 29 q 418 -233 440 -233 q 386 -159 386 -233 l 383 -158 l 386 -155 l 386 -152 l 383 -112 l 383 -105 l 380 -95 l 383 -83 l 380 -65 l 383 -62 l 380 -52 q 558 422 380 197 q 636 584 636 555 q 655 688 648 620 q 623 823 655 733 q 545 909 584 872 l 645 1019 m 493 876 l 501 876 l 508 872 l 502 786 l 502 654 l 501 631 l 502 623 l 495 613 q 465 619 465 616 l 463 616 l 458 616 l 448 619 l 445 616 l 438 619 l 402 616 l 401 616 q 383 641 383 616 l 388 681 l 386 773 l 386 776 l 388 791 l 386 798 q 443 844 386 822 q 493 876 445 851 m 438 597 l 445 597 q 540 494 525 597 q 440 398 525 398 q 351 463 381 398 l 345 484 l 345 504 q 438 597 355 597 "},"°":{"x_min":89,"x_max":475,"ha":514,"o":"m 89 843 q 104 917 89 883 q 145 979 119 952 q 206 1020 170 1005 q 280 1036 241 1036 q 356 1020 320 1036 q 418 979 391 1005 q 459 917 444 952 q 475 843 475 883 q 459 767 475 802 q 418 706 444 731 q 356 665 391 680 q 280 650 320 650 q 144 706 200 650 q 89 843 89 762 m 164 843 q 198 759 164 794 q 282 725 233 725 q 364 759 330 725 q 399 843 399 794 q 364 926 399 891 q 282 961 330 961 q 198 926 233 961 q 164 843 164 891 "},"V":{"x_min":5.5625,"x_max":937.5,"ha":942,"o":"m 538 0 l 400 0 l 5 1018 l 152 1018 l 416 277 q 445 191 433 233 q 469 111 458 149 q 495 192 481 151 q 525 277 509 234 l 800 1018 l 937 1018 l 538 0 "}," ":{"x_min":36.109375,"x_max":1369.453125,"ha":1426,"o":"m 211 1488 q 522 1368 347 1488 q 681 1158 669 1218 q 794 893 794 937 q 919 990 811 893 l 1226 1251 l 1230 1255 l 1233 1255 q 1369 1080 1369 1105 q 1265 998 1341 1065 q 1202 944 1255 998 l 841 633 q 926 240 881 320 q 1070 18 954 166 q 1291 -101 1162 -76 q 1358 -116 1358 -105 l 1358 -125 q 1256 -148 1358 -141 l 1226 -148 q 841 84 1041 -120 q 697 306 733 219 q 638 458 658 425 l 416 259 l 183 69 l 168 69 l 40 220 l 40 229 l 565 683 q 591 722 591 702 l 591 726 q 545 1029 591 822 q 331 1379 465 1284 q 176 1441 220 1441 l 129 1441 l 51 1430 l 36 1454 q 211 1488 56 1488 "},"h":{"x_min":27.78125,"x_max":1294.453125,"ha":1535,"o":"m 44 1683 l 1268 1683 l 1268 1468 l 318 1468 l 891 801 l 291 84 l 1273 84 l 1277 -122 l 27 -122 l 27 86 l 840 804 l 44 1477 l 44 1683 m 50 2119 l 1294 2119 l 1294 1886 l 45 1886 l 50 2119 "},"0":{"x_min":58,"x_max":722,"ha":758,"o":"m 58 502 q 206 962 58 841 q 391 1022 278 1022 q 635 894 552 1022 q 722 502 722 763 q 576 42 722 163 q 391 -17 503 -17 q 58 502 58 -17 m 187 502 q 193 353 187 417 q 213 242 200 288 q 391 86 259 86 q 594 502 594 86 q 587 651 594 587 q 566 760 580 714 q 388 919 518 919 q 252 845 302 919 q 187 502 187 755 "},".":{"x_min":129.171875,"x_max":1100,"ha":1225,"o":"m 675 1906 q 761 1793 756 1909 q 868 1625 818 1669 q 1052 1545 931 1577 q 1100 1531 1100 1545 q 1069 1519 1098 1520 q 723 1640 866 1512 q 615 1826 618 1731 l 615 1845 q 675 1906 612 1887 m 384 1526 l 431 1525 l 473 1526 l 555 1525 l 559 1529 l 579 1526 l 618 1527 l 637 1523 l 634 1484 l 640 1465 l 636 1441 l 638 1391 l 634 1387 l 638 1383 l 634 1281 l 638 1263 l 638 1052 l 634 1041 l 638 1037 l 634 955 l 638 931 l 631 920 l 636 901 l 637 862 l 633 858 l 637 854 q 627 800 636 800 q 566 872 581 845 q 465 980 559 870 q 380 1070 387 1055 l 383 1347 l 386 1351 l 390 1351 l 381 1375 l 386 1379 l 381 1390 l 383 1444 l 379 1463 l 381 1487 l 381 1502 l 373 1515 l 373 1522 l 384 1526 m 245 1148 l 254 1148 l 402 990 l 870 520 l 870 516 l 762 415 l 750 415 l 654 505 l 655 563 l 652 652 l 658 723 q 645 738 648 722 l 637 737 l 630 730 l 631 675 l 629 655 l 633 633 l 634 601 l 631 577 l 636 566 l 633 547 l 637 504 q 636 247 643 247 l 640 225 l 640 216 l 636 212 l 640 208 l 638 48 l 634 48 l 638 45 l 638 29 l 631 22 l 623 20 l 554 23 l 545 22 l 545 19 l 506 20 l 390 16 l 381 25 l 381 29 l 386 33 l 381 36 l 381 40 l 386 137 l 381 141 l 387 227 l 383 230 l 384 277 l 381 375 l 386 379 l 381 383 l 383 429 l 381 468 q 386 588 379 566 l 381 600 l 383 670 l 379 686 l 381 690 l 381 694 l 377 697 l 377 701 q 388 729 381 729 q 506 683 438 680 q 618 756 619 719 l 609 763 l 572 736 l 506 709 l 490 709 l 487 713 l 483 709 l 479 709 q 387 772 388 740 l 391 772 l 129 1031 l 129 1038 l 215 1120 l 245 1148 "},"@":{"x_min":77.78125,"x_max":1787.5,"ha":1836,"o":"m 1104 1516 l 1134 1516 q 1308 1413 1220 1516 l 1347 1330 q 1418 1016 1395 1243 l 1425 930 q 1354 523 1425 690 q 1251 326 1315 412 l 1247 323 l 1244 323 q 1191 402 1231 330 q 1144 500 1144 466 q 1220 740 1220 673 l 1225 743 l 1227 752 l 1225 756 q 1241 916 1234 787 l 1241 966 l 1244 980 q 1208 1230 1244 1061 q 1144 1326 1177 1312 l 1134 1326 q 1080 1233 1102 1326 q 1034 959 1055 1152 l 1037 956 l 1034 940 l 1034 926 l 1037 873 l 1034 869 q 1127 459 1034 686 l 1180 376 q 1401 213 1306 213 q 1444 206 1401 208 l 1454 209 l 1475 206 l 1477 206 q 1618 300 1529 206 l 1658 340 l 1787 230 l 1787 223 q 1670 116 1680 116 q 1411 23 1551 23 l 1408 26 l 1404 26 l 1401 23 q 1094 190 1248 23 q 991 340 1002 295 q 908 516 965 368 q 844 963 844 725 q 884 1233 861 1188 q 968 1426 884 1277 q 1094 1513 1043 1513 l 1104 1516 m 241 1459 l 404 1366 l 408 1363 l 408 1356 q 361 1263 386 1302 q 268 936 311 1147 l 270 933 l 268 909 l 268 859 l 263 840 l 270 816 l 268 813 l 268 809 q 387 397 268 622 q 694 190 526 190 l 713 190 q 913 266 797 190 l 975 302 q 1077 163 1030 205 l 1091 147 q 1051 109 1081 147 l 913 40 q 744 2 841 15 l 744 6 l 741 2 l 718 2 l 677 0 q 418 93 550 0 q 280 209 322 159 q 197 333 220 287 q 104 569 152 397 q 80 723 91 687 l 84 733 l 77 866 l 80 869 l 80 873 l 77 876 q 204 1409 77 1144 l 241 1459 "},"f":{"x_min":-91.671875,"x_max":902.78125,"ha":969,"o":"m 113 5 l -69 5 l -69 1398 l 868 1398 l 868 1233 l 113 1233 l 113 804 l 115 804 l 115 626 l 113 638 l 113 5 m 495 1048 l 495 1565 l 661 1565 l 661 1048 l 495 1048 m -90 1801 l 902 1801 l 902 1966 l -91 1966 l -90 1801 "},";":{"x_min":118.0625,"x_max":1485.09375,"ha":1579,"o":"m 1370 1118 q 1398 1056 1370 1123 q 1452 895 1430 977 q 1484 662 1483 777 q 1370 231 1491 429 q 980 0 1225 -1 q 698 115 816 1 q 559 334 609 198 q 525 486 520 436 q 584 712 531 623 q 794 831 655 831 q 1008 723 931 831 q 1077 490 1075 629 q 1041 319 1079 386 q 956 227 1018 277 q 859 265 876 250 q 800 323 836 286 q 906 491 906 405 q 886 601 906 552 q 808 665 858 665 q 694 484 704 665 q 758 306 688 400 q 976 194 841 194 q 1200 376 1111 194 q 1270 652 1272 523 q 1209 927 1268 786 q 1154 1043 1162 1043 l 1370 1118 m 740 51 q 691 90 737 50 q 650 123 670 106 q 593 206 629 155 q 570 194 581 200 q 533 190 554 184 q 413 265 466 204 q 319 570 323 369 q 400 868 316 680 q 483 1036 470 1036 l 287 1129 q 184 915 204 963 q 118 554 118 740 q 222 175 118 329 q 506 4 330 13 q 740 51 675 -4 "},"i":{"x_min":25,"x_max":826.390625,"ha":926,"o":"m 479 1968 l 354 1968 l 354 2111 l 479 2111 l 479 1968 m 479 1172 l 354 1172 l 354 1909 l 479 1909 l 479 1172 m 823 593 l 826 1156 l 25 1156 l 25 597 l 184 594 l 186 968 l 333 968 l 333 -1 l 519 -1 l 519 968 l 665 968 l 669 594 l 823 593 "},"A":{"x_min":-0.03125,"x_max":1420.828125,"ha":1521,"o":"m 637 479 l 637 -30 l 759 -30 l 759 479 l 637 479 m 433 183 l 955 183 l 955 301 l 433 301 l 433 183 m 1209 -12 q 1311 56 1216 -12 q 1420 136 1413 131 q 613 1152 948 687 q 566 1269 566 1218 q 601 1370 566 1313 q 693 1420 643 1420 q 786 1377 741 1420 q 819 1231 830 1333 q 733 1061 815 1191 l 877 865 q 1030 1275 1030 1063 q 888 1579 1030 1475 q 720 1620 833 1620 q 536 1593 627 1620 q 413 1527 445 1565 q 343 1288 343 1443 q 434 1005 343 1127 q 1209 -12 780 552 m 666 638 l 525 820 q 266 470 529 819 q 0 118 133 293 q 198 -9 -2 118 q 666 638 348 201 "},"6":{"x_min":61.109375,"x_max":694.453125,"ha":708,"o":"m 544 790 l 677 783 q 673 814 684 791 q 643 864 662 837 q 602 916 625 891 q 562 954 579 941 q 462 1007 519 987 q 344 1028 405 1028 q 228 993 280 1028 q 138 896 176 959 q 81 743 101 833 q 61 538 61 652 q 368 -3 61 -10 q 658 141 584 1 q 694 305 694 205 q 682 381 694 341 q 647 460 670 421 q 380 594 566 594 q 321 584 355 594 q 257 558 287 574 q 206 523 227 542 q 186 484 186 503 q 195 620 186 556 q 219 739 204 684 q 368 902 266 904 q 544 790 490 901 m 394 469 q 522 418 469 469 q 575 295 575 367 q 522 172 575 223 q 394 122 469 122 q 325 135 358 122 q 269 173 293 149 q 230 228 244 196 q 217 295 217 259 q 230 362 217 331 q 269 417 244 394 q 325 455 293 441 q 394 469 358 469 "},"n":{"x_min":94.4375,"x_max":1409.71875,"ha":1456,"o":"m 179 894 q 169 948 179 894 q 165 1033 165 981 q 240 1208 165 1118 q 469 1319 331 1319 q 663 1281 590 1319 q 780 1175 723 1250 q 898 1019 840 1097 q 1050 923 938 969 q 1323 851 1169 875 q 1115 833 1206 833 q 768 941 861 833 q 650 1081 709 1011 q 470 1144 579 1147 q 298 1065 394 1141 q 179 894 194 983 m 462 865 q 472 890 465 865 q 479 941 479 916 q 455 998 479 984 q 386 1015 426 1015 q 330 1004 354 1015 q 384 1058 345 1030 q 477 1093 433 1093 q 540 1073 511 1093 q 554 1031 554 1062 q 527 933 554 984 q 462 865 501 877 m 258 904 q 200 833 229 869 q 155 730 169 791 q 137 516 137 651 q 247 151 137 290 q 561 1 361 8 q 690 34 611 0 q 759 72 759 65 q 838 27 784 48 q 970 0 906 0 q 1213 45 1140 0 q 1386 466 1365 145 q 1387 512 1387 488 q 1368 714 1387 601 q 1350 811 1350 827 l 1168 770 q 1197 480 1200 654 q 1162 279 1194 341 q 980 180 1113 187 q 829 230 901 176 q 772 284 772 273 q 688 231 744 259 q 556 191 613 194 q 401 281 472 188 q 327 516 327 379 q 352 713 327 645 q 402 804 361 741 l 258 904 m 94 1397 l 1409 1397 l 1409 1579 l 94 1579 l 94 1397 "},"O":{"x_min":91.671875,"x_max":1388.890625,"ha":1525,"o":"m 738 1240 q 406 1094 543 1240 q 269 740 269 948 q 406 386 269 533 q 738 240 543 240 q 1072 386 934 240 q 1209 740 1209 533 q 1072 1094 1209 948 q 738 1240 936 1240 m 440 31 q 341 -6 381 31 q 301 -98 301 -44 q 341 -189 301 -151 q 440 -227 381 -227 q 539 -189 498 -227 q 580 -98 580 -151 q 539 -6 580 -44 q 440 31 498 31 m 1066 30 q 967 -6 1008 30 q 926 -98 926 -44 q 967 -190 926 -152 q 1066 -227 1008 -227 q 1164 -190 1123 -227 q 1205 -98 1205 -152 q 1165 -6 1205 -44 q 1066 30 1125 30 m 738 1429 q 1200 1227 1012 1429 q 1388 737 1388 1025 q 1199 251 1388 452 q 738 50 1009 50 q 281 251 472 50 q 91 737 91 452 q 280 1227 91 1025 q 738 1429 469 1429 m 97 1802 l 1347 1802 l 1347 1638 l 97 1638 l 97 1802 "},"3":{"x_min":19.109375,"x_max":722,"ha":757,"o":"m 116 891 l 20 951 q 19 963 19 955 q 71 1000 19 1000 q 143 986 122 1000 q 228 905 201 944 q 256 802 256 866 q 163 692 256 692 q 58 789 58 692 q 116 891 58 854 m 165 753 q 200 797 200 753 q 165 842 200 842 q 139 826 149 842 q 129 797 129 811 q 165 753 129 753 m 263 894 l 229 950 q 385 1024 295 1024 q 585 964 491 1024 q 708 733 708 884 q 599 473 708 561 q 278 386 490 386 q 108 439 152 386 q 86 521 86 469 q 102 580 86 555 q 147 621 119 605 q 213 645 176 637 q 288 653 249 653 q 515 611 431 653 l 436 536 q 333 561 397 561 q 236 510 236 561 q 316 469 236 469 q 382 478 348 469 q 447 506 416 488 q 504 549 478 524 q 546 605 529 574 q 566 730 566 651 q 538 850 566 809 q 478 896 518 879 q 381 914 438 914 q 263 894 291 914 m 588 441 l 660 505 q 722 328 722 452 q 638 117 722 216 q 405 7 546 7 q 246 58 328 7 l 285 113 q 305 109 282 110 q 357 108 327 108 q 510 162 435 108 q 601 338 601 228 q 588 441 601 409 m 174 322 q 251 287 220 322 q 280 208 283 252 q 240 105 276 144 q 155 22 205 66 q 98 0 129 0 q 73 13 88 0 q 58 38 58 27 q 80 64 58 49 q 138 102 103 79 q 102 156 116 122 q 90 226 88 191 q 110 290 91 262 q 174 322 130 317 m 188 166 q 208 199 208 166 q 188 233 208 233 q 168 199 168 233 q 188 166 168 166 "},"]":{"x_min":-2.78125,"x_max":1443.0625,"ha":1472,"o":"m 1180 1620 l 1184 1620 q 1262 1588 1216 1600 q 1402 1527 1400 1538 l 930 361 l 787 6 q 745 0 772 0 l 719 1 l 637 0 l 637 4 q 550 0 618 -1 l 505 1 l 483 -1 l 479 2 l 475 2 l 411 -2 l 401 8 l 397 8 q 388 -1 397 -1 l 351 0 l 329 -2 l 313 0 q 295 -5 295 1 l 287 -5 l 287 -1 l 163 -4 l 156 20 l 161 25 l 158 47 l 156 234 l 161 238 l 172 230 l 240 236 l 254 231 l 295 233 l 311 229 q 352 236 326 236 l 355 236 l 359 231 l 393 237 l 401 237 l 401 233 l 529 237 l 533 240 l 533 244 q 284 883 533 269 q 68 1427 270 902 q 25 1511 44 1490 l 25 1515 l 216 1598 l 243 1616 l 250 1616 l 322 1433 l 538 866 l 705 444 l 712 444 l 1001 1180 l 1169 1611 l 1180 1620 m 1 1911 l 1443 1911 l 1443 2093 l -2 2093 l 1 1911 "},"m":{"x_min":65.28125,"x_max":1477.78125,"ha":1533,"o":"m 219 9 q 190 72 219 5 q 136 231 158 150 q 104 465 106 350 q 219 895 98 698 q 608 1127 363 1130 q 890 1013 773 1126 q 1029 793 979 929 q 1065 641 1068 691 q 1004 415 1056 505 q 794 297 933 297 q 581 405 656 297 q 511 638 515 498 q 547 808 509 743 q 631 900 570 850 q 729 862 712 877 q 790 804 752 843 q 681 636 681 722 q 702 526 681 576 q 781 462 731 462 q 894 643 884 462 q 831 820 900 727 q 612 933 748 933 q 390 751 477 933 q 319 476 316 604 q 379 200 320 341 q 436 84 426 84 l 219 9 m 848 1076 q 898 1037 851 1077 q 938 1004 918 1020 q 995 920 959 972 q 1018 934 1006 927 q 1056 938 1036 943 q 1175 862 1122 923 q 1269 556 1265 758 q 1190 259 1272 447 q 1105 93 1118 93 l 1301 0 q 1404 213 1386 163 q 1470 573 1470 388 q 1366 952 1470 798 q 1081 1123 1258 1113 q 848 1076 913 1133 m 65 1252 l 1477 1252 l 1477 1433 l 65 1433 l 65 1252 "},"9":{"x_min":58,"x_max":728,"ha":764,"o":"m 77 236 l 197 247 q 366 86 226 86 q 538 183 479 86 q 604 453 604 285 q 604 464 604 457 q 602 478 604 470 q 498 380 563 417 q 360 344 433 344 q 138 444 223 344 q 58 677 58 541 q 144 921 58 824 q 379 1022 233 1022 q 563 966 481 1022 q 686 816 644 910 q 718 695 708 767 q 728 530 728 623 q 560 42 728 163 q 363 -17 476 -17 q 168 49 244 -17 q 77 236 92 116 m 589 684 q 540 845 589 780 q 394 919 486 919 q 241 841 299 919 q 187 674 187 770 q 241 518 187 580 q 391 455 298 455 q 540 523 486 455 q 589 684 589 584 "},"¤":{"x_min":51.78125,"x_max":733.21875,"ha":772,"o":"m 147 666 l 51 760 l 130 844 l 228 747 q 391 797 300 797 q 556 747 483 797 l 652 844 l 733 760 l 637 666 q 686 504 686 593 q 637 340 686 415 l 733 246 l 652 164 l 556 261 q 391 210 484 210 q 228 261 300 210 l 130 164 l 51 246 l 147 340 q 99 504 99 418 q 147 666 99 590 m 212 504 q 264 376 212 429 q 392 324 317 324 q 519 376 466 324 q 572 504 572 429 q 519 631 572 579 q 392 683 466 683 q 264 631 317 683 q 212 504 212 579 "},"l":{"x_min":91.671875,"x_max":1120.828125,"ha":1225,"o":"m 1113 -4 l 91 -5 l 91 1402 l 312 1402 l 312 177 l 1120 176 l 1113 -4 m 1115 1204 l 305 1204 l 305 1406 l 1115 1406 l 1115 1204 "},"8":{"x_min":81,"x_max":703,"ha":739,"o":"m 586 295 q 532 430 586 377 q 391 483 479 483 q 253 431 308 483 q 199 295 199 379 q 257 158 199 208 q 391 110 309 110 q 527 158 472 110 q 586 295 586 212 m 392 -3 q 273 19 329 -3 q 174 83 217 42 q 106 178 132 123 q 81 295 81 233 q 105 413 81 358 q 174 509 130 468 q 273 573 217 550 q 392 596 329 596 q 511 573 454 596 q 610 509 568 550 q 678 414 653 469 q 703 295 703 359 q 678 178 703 233 q 610 83 653 123 q 511 19 568 42 q 392 -3 454 -3 m 586 718 q 570 792 586 757 q 527 851 554 826 q 466 891 501 876 q 391 906 430 906 q 319 891 354 906 q 257 851 285 876 q 214 791 230 825 q 199 718 199 757 q 214 646 199 679 q 257 587 230 612 q 318 547 283 562 q 391 533 354 533 q 529 586 473 533 q 586 718 586 639 m 392 421 q 273 443 329 421 q 174 507 217 466 q 106 602 132 547 q 81 719 81 656 q 106 836 81 781 q 174 932 132 891 q 273 996 217 973 q 392 1019 329 1019 q 510 996 454 1019 q 609 932 566 973 q 678 837 653 892 q 703 719 703 783 q 678 602 703 656 q 610 507 653 547 q 511 443 568 466 q 392 421 454 421 "},"p":{"x_min":94.4375,"x_max":1218.0625,"ha":1379,"o":"m 595 523 q 555 752 576 637 q 525 1027 518 976 q 602 1174 536 1118 q 747 1223 668 1230 q 950 1015 951 1206 q 775 791 948 855 q 597 759 687 759 l 637 545 q 790 552 713 550 q 1068 661 962 576 q 1218 1015 1218 781 q 1122 1309 1218 1187 q 701 1473 988 1481 q 368 1329 498 1466 q 251 1102 268 1223 q 251 1069 251 1088 q 288 791 251 988 q 338 523 334 556 q 352 379 351 408 q 343 165 352 341 q 243 -163 333 -1 q 115 -358 179 -261 q 284 -200 200 -279 q 488 36 413 -73 q 605 405 605 202 q 595 523 605 462 m 94 759 l 94 544 l 293 544 l 252 759 l 94 759 "},"4":{"x_min":18.453125,"x_max":706.953125,"ha":736,"o":"m 435 1014 q 496 925 496 1014 q 489 860 496 889 q 471 798 483 832 q 437 719 458 765 q 387 603 417 673 q 247 369 328 455 q 104 292 172 292 q 44 323 69 292 q 18 389 18 355 q 33 434 18 411 q 69 477 47 458 q 117 507 92 496 q 164 519 143 519 q 211 489 211 519 q 178 434 211 453 q 147 422 168 432 q 110 403 126 412 q 90 385 94 393 q 110 378 86 378 q 137 383 125 380 q 157 391 149 386 q 207 438 182 407 q 254 511 232 469 q 296 602 276 553 q 330 703 315 651 q 372 854 355 783 q 399 984 389 925 q 435 1014 399 1007 m 312 413 l 362 479 q 483 391 391 452 q 483 325 491 388 q 441 334 468 325 q 388 356 415 343 q 339 384 361 369 q 312 413 318 400 m 589 473 l 589 575 q 614 627 601 627 q 627 605 627 627 q 589 473 627 551 m 618 747 q 565 723 587 747 q 531 665 544 699 q 511 590 518 630 q 505 516 505 549 l 505 40 q 554 8 513 8 q 601 35 601 8 l 601 363 q 706 626 706 508 q 618 747 706 737 "},"R":{"x_min":111.109375,"x_max":1020.828125,"ha":1143,"o":"m 155 1429 q 422 1184 325 1343 l 595 1184 l 595 1033 l 481 1033 q 547 736 541 883 q 301 556 372 669 q 288 1037 320 875 l 111 1037 l 111 1187 l 262 1187 q 155 1429 251 1262 m 647 713 q 911 607 801 713 q 1020 351 1020 501 q 911 95 1020 201 q 647 -11 801 -11 q 381 95 491 -11 q 272 351 272 201 q 381 607 272 501 q 647 713 491 713 m 647 527 q 517 478 569 527 q 465 351 465 429 q 514 223 465 270 q 647 176 563 176 q 775 225 722 176 q 827 351 827 273 q 777 480 827 433 q 647 527 726 527 "},"o":{"x_min":47.21875,"x_max":1266.671875,"ha":1381,"o":"m 216 -213 q 245 -291 215 -258 q 320 -327 276 -325 q 396 -302 365 -330 q 429 -229 427 -273 q 400 -152 430 -186 q 325 -115 369 -118 q 249 -140 280 -112 q 216 -213 218 -169 m 858 -202 q 888 -280 858 -247 q 963 -316 919 -313 q 1039 -290 1008 -319 q 1072 -218 1070 -262 q 1041 -140 1072 -175 q 966 -104 1011 -106 q 890 -129 922 -101 q 858 -202 859 -158 m 655 1219 q 894 1171 783 1219 q 1088 1040 1005 1123 q 1218 847 1170 958 q 1266 609 1266 736 q 1218 372 1266 483 q 1087 179 1170 262 q 893 49 1004 97 q 655 1 781 1 q 420 49 530 1 q 227 180 309 97 q 95 374 144 263 q 47 609 47 484 q 95 847 47 736 q 225 1040 143 958 q 418 1171 308 1123 q 655 1219 529 1219 m 655 1052 q 484 1018 563 1052 q 343 923 404 983 q 248 783 283 863 q 213 611 213 702 q 248 439 213 519 q 343 299 283 359 q 484 204 404 238 q 655 169 563 169 q 827 204 747 169 q 967 299 906 238 q 1062 440 1027 359 q 1097 611 1097 520 q 1062 783 1097 702 q 968 923 1027 863 q 827 1018 908 983 q 655 1052 747 1052 "},"5":{"x_min":49.890625,"x_max":739.9375,"ha":746,"o":"m 257 51 l 294 101 q 474 126 412 98 q 577 214 535 152 q 619 363 619 276 q 502 533 619 470 q 317 580 416 578 l 327 672 q 584 624 506 663 q 739 324 744 548 q 627 90 738 184 q 402 4 525 4 q 257 51 313 4 m 89 489 q 164 459 119 459 q 226 477 200 459 q 270 524 252 495 q 297 589 289 553 q 305 659 305 625 q 302 708 305 668 q 294 808 300 749 q 202 810 202 808 q 191 672 207 791 q 161 661 182 672 q 118 634 140 651 q 81 595 97 618 q 65 547 65 572 q 89 489 65 517 m 211 588 q 214 570 218 581 q 201 550 211 559 q 180 538 191 541 q 162 541 169 534 q 159 559 155 548 q 171 579 162 570 q 191 593 180 588 q 211 588 202 597 m 55 977 q 83 865 36 901 q 222 829 130 829 q 448 851 327 829 q 705 919 569 873 l 705 1016 q 523 976 630 995 q 277 937 416 956 q 222 1001 265 970 q 136 1032 180 1032 q 55 977 81 1032 m 200 911 q 174 897 191 890 q 145 918 156 904 q 137 944 133 933 q 176 941 141 955 q 200 911 208 930 m 180 314 q 259 279 227 314 q 289 200 291 244 q 250 96 286 137 q 164 14 215 55 q 104 -8 136 -8 q 79 4 94 -8 q 64 30 64 16 q 86 55 64 41 q 144 94 108 68 q 97 221 96 137 q 180 314 97 305 m 196 157 q 217 191 217 157 q 196 226 217 226 q 175 191 175 226 q 196 157 175 157 "}}}
